<?xml version="1.0" standalone="no"?>
<!DOCTYPE svg PUBLIC "-//W3C//DTD SVG 1.1//EN" "http://www.w3.org/Graphics/SVG/1.1/DTD/svg11.dtd" >
<svg>
<metadata>
Created by FontForge 20090622 at Mon Jan 29 02:31:43 2018
 By deploy user
</metadata>
<defs>
<font id="audi-iconfont" horiz-adv-x="1200" >
  <font-face 
    font-family="audi-iconfont"
    font-weight="400"
    font-stretch="normal"
    units-per-em="1200"
    panose-1="2 0 5 3 0 0 0 0 0 0"
    ascent="1200"
    descent="0"
    bbox="-5 -7 1213 1206"
    underline-thickness="0"
    underline-position="12"
    unicode-range="U+EA01-U+EC2A"
  />
    <missing-glyph />
    <glyph glyph-name=".notdef" horiz-adv-x="0" 
 />
    <glyph glyph-name="adblue-alert-large" unicode="&#xea01;" 
d="M875 425h25v150h-25v-150zM50 38v-13h151l-1 13q-1 29 1 76q5 90 23 172q26 114 74 195l19 31l-34 -13q-29 -11 -65 -40q-68 -54 -110 -140q-58 -118 -58 -282v1zM175 50h-100q2 119 37 213q27 73 72 126q32 40 72 66q-51 -103 -71 -243q-12 -84 -10 -162zM616 250h543
l-271 488zM659 275l229 412l228 -412h-457zM656 473l-55 -35q-14 -8 -29 -4.5t-24 17.5l-31 53l-112 -62l-100 166l113 62l-1 1q52 31 72 62q33 -58 74 -58q29 0 49.5 13t30.5 36q29 -49 69 -49q43 0 65.5 22.5t22.5 65.5h-25q0 -33 -15 -48t-48 -15q-21 0 -41 27
q-14 20 -22 42l-24 -4q0 -31 -16.5 -48t-46.5 -17q-19 0 -40 28q-14 19 -23 42l-24 -5q0 -16 -24 -38q-19 -18 -47 -35l-49 79l534 331q13 8 27.5 4.5t23.5 -15.5l205 -312l-164 -106l13 -21l186 119l-220 333q-14 22 -38.5 27.5t-45.5 -8.5l-556 -344l62 -99l-112 -63
l126 -209l112 63l19 -32q9 -15 23 -23.5t31 -8.5t33 10l55 35zM875 325h25v50h-25v-50z" />
    <glyph glyph-name="adblue-alert-small" unicode="&#xea02;" 
d="M0 0h50q0 125 47 229q34 74 89 131q29 29 52 44l-26 42q-27 -16 -59 -49q-62 -62 -100 -145q-53 -114 -53 -252zM644 404l-28 42q-26 -17 -55 -11.5t-47 31.5l-33 42l-124 -75l-97 136l123 81h42q39 0 77 17q48 21 73 61q10 -17 23 -30q46 -48 127 -48v50q-59 0 -91 32
q-20 21 -29 54q-5 19 -5 37v2l-50 1v-3q-1 -53 -30 -85q-22 -23 -57 -32q-20 -6 -38 -6h-37l-52 68l518 331q25 17 56 10q15 -4 28 -12t20 -20l174 -295l-122 -87l30 -40l158 113l-197 336q-14 20 -34.5 34t-45.5 19.5t-50 1t-45 -17.5l-562 -359l75 -101l-149 -100
l153 -214l126 75l5 -6q19 -28 48 -41.5t61 -11.5t61 21zM875 783l-325 -683h650zM875 667l245 -517h-490zM850 500v-150h50v150h-50zM850 200h50v100h-50v-100z" />
    <glyph glyph-name="adblue-large" unicode="&#xea03;" 
d="M960 1104q-14 22 -38.5 27.5t-45.5 -8.5l-556 -344l62 -99l-112 -63l126 -209l112 63l19 -32q9 -15 23 -23.5t31 -8.5t33 10l566 354zM601 438q-14 -8 -29 -4.5t-24 17.5l-31 53l-112 -62l-100 166l101 56q18 9 37 22q32 23 47 46q34 -57 72 -57q30 0 51 13t30 37
q32 -50 69 -50q31 0 52 13t30 37q32 -50 68 -50q30 0 51 13.5t31 37.5q21 -32 46 -44zM949 767l-24 -4q0 -30 -16.5 -46.5t-45.5 -16.5q-19 0 -40 27q-15 19 -24 40l-24 -4q0 -35 -21 -51q-15 -12 -41 -12q-20 0 -41 27q-14 18 -23 40l-24 -4q0 -30 -16.5 -46.5t-45.5 -16.5
q-19 0 -40 27q-15 19 -24 40l-24 -4q0 -16 -24 -38q-19 -18 -47 -33l-49 79l534 331q13 8 27.5 4.5t23.5 -15.5l205 -312l-127 -80v1q-22 0 -44 27q-16 19 -25 40zM50 38v-13h151l-1 13q-1 29 1 76q5 90 23 172q26 114 74 195l19 31l-34 -13q-29 -11 -65 -40
q-68 -54 -110 -140q-58 -118 -58 -282v1zM175 50h-100q2 119 37 213q27 73 72 126q32 40 72 66q-51 -103 -71 -243q-12 -84 -10 -162z" />
    <glyph glyph-name="adblue-small" unicode="&#xea04;" 
d="M0 0h50q0 125 47 229q34 74 89 131q29 29 52 44l-26 42q-27 -16 -59 -49q-62 -62 -100 -145q-53 -114 -53 -252zM986 1099q-14 20 -34.5 34t-45.5 19.5t-50 1t-45 -17.5l-547 -355l75 -100l-149 -100l153 -214l126 75l5 -6q19 -28 48 -41.5t61 -11.5t61 21l555 364z
M616 446q-26 -17 -55 -11.5t-46 31.5l-34 42l-124 -75l-97 136l123 81h42q39 0 77 17q48 21 73 61q10 -17 23 -30q46 -48 127 -48q38 0 76 16q47 20 72 59q9 -15 21 -28q22 -24 52 -35zM931 731q-18 18 -26 48q-5 19 -5 39v7l-50 2v-9q-2 -51 -32 -81q-21 -22 -56 -32
q-19 -5 -37 -5q-59 0 -91 32q-20 21 -29 54q-5 19 -5 37v2l-50 1v-3q-1 -53 -30 -85q-22 -23 -57 -32q-20 -6 -38 -6h-37l-52 69l503 325q24 17 56 10t49 -33l187 -289l-125 -81q-50 2 -75 30z" />
    <glyph glyph-name="address-book-large" unicode="&#xea05;" 
d="M463 675h75q36 0 61.5 25.5t25.5 62.5v72q0 37 -26.5 63.5t-63.5 26.5h-72q-37 0 -62.5 -25.5t-25.5 -62.5v-74q0 -37 25.5 -62.5t62.5 -25.5zM400 838q0 26 18 44t45 18h72q27 0 46 -19t19 -46v-72q0 -27 -18 -45t-44 -18h-75q-27 0 -45 18t-18 45v75zM725 538
q0 36 -25.5 61.5t-61.5 25.5h-275q-37 0 -62.5 -25.5t-25.5 -61.5v-238h450v238zM700 325h-400v213q0 26 18 44t45 18h275q26 0 44 -18t18 -44v-213zM1075 838v250q0 25 -18.5 43.5t-44.5 18.5h-912v-1100h913q25 0 43.5 18.5t18.5 43.5v276q0 15 -6.5 28t-18.5 22
q12 8 18.5 21t6.5 29v250q0 15 -7 28t-18 21q11 9 18 22t7 28v1zM900 75h-775v1050h775v-1050zM1050 388v-275q0 -16 -11 -27t-26 -11h-88v350h88q15 0 26 -11t11 -26zM1050 738v-250q0 -16 -11 -27t-26 -11h-88v325h88q15 0 26 -11t11 -26zM1050 838q0 -16 -11 -27t-26 -11
h-88v325h88q15 0 26 -11t11 -26v-250z" />
    <glyph glyph-name="address-book-small" unicode="&#xea06;" 
d="M475 650h50q34 0 62.5 17t45.5 45.5t17 62.5v50q0 34 -17 62.5t-45.5 45.5t-62.5 17h-50q-34 0 -62.5 -17t-45.5 -45.5t-17 -62.5v-50q0 -34 17 -62.5t45.5 -45.5t62.5 -17zM400 825q0 31 22 53t53 22h50q31 0 53 -22t22 -53v-50q0 -31 -22 -53t-53 -22h-50q-31 0 -53 22
t-22 53v50zM750 525q0 31 -22 53t-53 22h-350q-29 0 -52 -23t-23 -52v-225h500v225zM700 350h-400v175q0 8 8.5 16.5t16.5 8.5h350q10 0 17.5 -7t7.5 -18v-175zM1100 1125q0 33 -21 54t-54 21h-975v-1200h975q33 0 54 21t21 54v300q0 29 -18 50q18 21 18 50v300q0 29 -18 50
q18 21 18 50v250zM900 850v-50v-750h-800v1100h800v-300zM1050 75q0 -12 -6.5 -18.5t-18.5 -6.5h-75v350h75q12 0 18.5 -6.5t6.5 -18.5v-300zM1050 475q0 -12 -6.5 -18.5t-18.5 -6.5h-75v350h75q12 0 18.5 -6.5t6.5 -18.5v-300zM1050 875q0 -12 -6.5 -18.5t-18.5 -6.5h-75
v300h75q12 0 18.5 -6.5t6.5 -18.5v-250z" />
    <glyph glyph-name="administrator-large" unicode="&#xea07;" 
d="M1085 990l-78 -77h-14l-80 80v14l77 78l-20 40h-138l-107 -107v-150l-393 -393h-150l-107 -107v-138l40 -20l78 78h14l81 -81v-14l-78 -78l20 -40h138l107 107v150l393 393h150l107 107v138zM1100 843l-93 -93h-150l-407 -407v-150l-93 -93h-112l-5 10l73 72v36l-95 95
h-36l-72 -73l-10 5v112l93 93h150l407 407v150l93 93h112l5 -10l-72 -72v-36l94 -94h36l72 72l10 -5v-112z" />
    <glyph glyph-name="administrator-small" unicode="&#xea08;" 
d="M1150 1061l-98 -103l-19 -5l-80 80l4 19l104 98l-51 50h-170l-140 -140v-175l-385 -385h-175l-140 -140v-170l50 -50l90 89l30 16l75 -75l-16 -30l-89 -90l50 -50h170l140 140v175l385 385h175l140 140v170zM1150 860l-110 -110h-175l-415 -415v-175l-110 -110h-130
l58 57l37 73l-125 125l-66 -33l-64 -62v130l110 110h175l415 415v175l110 110h129l-76 -72l-16 -61l120 -120l61 16l72 76v-129z" />
    <glyph glyph-name="announcements-large" unicode="&#xea09;" 
d="M1025 1050q-3 0 -6 -2q-28 -16 -74 -39q-88 -44 -168 -71q-111 -38 -189 -38h-513v-375h178l125 -400h215l-138 400h133q78 0 189 -38q80 -27 168 -71q46 -23 74 -39q3 -2 6 -2q51 0 78 110q22 92 22 227.5t-22 227.5q-27 110 -78 110zM575 550h-155l137 -400h-160
l-125 400h-172v325h475v-325zM1028 400q-74 43 -161 80q-157 66 -267 69v327q110 3 267 70q87 36 161 79q17 -3 32 -37q18 -38 28 -103q12 -74 12 -172.5t-12 -172.5q-10 -65 -28 -103q-15 -34 -32 -37z" />
    <glyph glyph-name="announcements-small" unicode="&#xea0a;" 
d="M1075 1100q-6 0 -11 -3q-27 -13 -87 -38q-103 -44 -193 -71q-126 -38 -209 -38h-575v-450h207l150 -450h253l-150 450h115q83 0 209 -38q90 -27 193 -71q54 -22 87 -38q5 -3 11 -3q60 0 92.5 97t32.5 278t-32.5 278t-92.5 97zM550 550h-160l150 -450h-147l-150 450h-193
v350h500v-350zM1080 401q-89 42 -188 78q-175 64 -292 70v352q117 6 292 70q99 36 188 78q16 -4 31 -37q17 -38 27 -104q12 -77 12 -183t-12 -183q-10 -66 -27 -104q-15 -33 -32 -37h1z" />
    <glyph glyph-name="anti-theft-alarm-system-alert-large" unicode="&#xea0b;" 
d="M1159 650l-271 488l-272 -488h543zM1116 675h-457l229 412zM900 975h-25v-150h25v150zM900 725v50h-25v-50h25zM625 1150h-25v-250h25v250zM913 300h-42l-46 289l-25 -3l45 -286h-457l92 488q0 12 7 12h163v25h-162q-15 0 -24 -10t-9 -25l-93 -490h-49q-17 0 -27.5 -10.5
t-10.5 -26.5v-100q0 -17 10.5 -27.5t26.5 -10.5h601q16 0 26.5 10.5t10.5 27.5v100q0 16 -10.5 26.5t-27.5 10.5h1zM925 163q0 -13 -13 -13h-599q-13 0 -13 13v100q0 12 13 12h600q12 0 12 -13v-99zM350 625h-250v-25h250v25zM409 859l-175 175l-18 -18l175 -175z" />
    <glyph glyph-name="anti-theft-alarm-system-alert-small" unicode="&#xea0c;" 
d="M900 650v100h-50v-100h50zM1200 550l-325 656l-325 -656h650zM1120 600h-490l245 494zM900 950h-50v-150h50v150zM250 600h-250v-50h250v50zM950 200h-54l-46 279l-50 -8l46 -271h-516l103 550h117v50h-110q-55 0 -55 -35l-106 -565h-24q-22 0 -38.5 -16.5t-16.5 -38.5
v-95q0 -22 16.5 -38.5t38.5 -16.5h695q22 0 38.5 16.5t16.5 38.5v95q0 22 -16.5 38.5t-38.5 16.5zM955 50q0 -1 -2 -3t-3 -2h-695q-1 0 -3 2t-2 3v95q0 1 2 3t3 2h695q1 0 3 -2t2 -3v-95zM363 858l-200 200l-36 -36l200 -200zM600 1200h-50v-300h50v300z" />
    <glyph glyph-name="anti-theft-alarm-system-large" unicode="&#xea0d;" 
d="M625 1150h-25v-250h25v250zM409 859l-175 175l-18 -18l175 -175zM1036 1016l-17 18l-178 -175l18 -18zM913 300h-45l-98 488v2q0 14 -10.5 24.5t-24.5 10.5h-252q-15 0 -24 -11t-9 -24l-95 -490h-42q-17 0 -27.5 -10.5t-10.5 -26.5v-100q0 -17 10.5 -27.5t26.5 -10.5h601
q16 0 26.5 10.5t10.5 27.5v100q0 16 -10.5 26.5t-27.5 10.5h1zM475 788q0 4 2 8t6 4h252q4 0 7 -3t3 -7l97 -490h-462zM925 163q0 -13 -13 -13h-599q-13 0 -13 13v100q0 12 13 12h600q12 0 12 -13v-99zM875 600v-25h250v25h-250zM350 600h-250v-25h250v25z" />
    <glyph glyph-name="anti-theft-alarm-system-small" unicode="&#xea0e;" 
d="M600 1200h-50v-300h50v300zM363 857l-200 205l-36 -34l200 -205zM1078 1028l-36 34l-200 -205l36 -34zM950 600v-50h250v50h-250zM950 200h-30l-115 563q-2 37 -50 37h-310q-48 0 -50 -37l-115 -563h-25q-23 0 -39 -14.5t-16 -35.5v-100q0 -21 16 -35.5t39 -14.5h695
q23 0 39 14.5t16 35.5v100q0 21 -16 35.5t-39 14.5zM443 750h2h312l112 -550h-538zM950 50h-695l-4 1q-1 0 -1 -1l-1 98q2 2 6 2h695h3q2 -1 2 0l1 -98q-2 -2 -6 -2zM250 600h-250v-50h250v50z" />
    <glyph glyph-name="apps-large" unicode="&#xea0f;" 
d="M1038 975h-63v63q0 36 -25.5 61.5t-61.5 25.5h-725q-37 0 -62.5 -25.5t-25.5 -61.5v-725q0 -37 25.5 -62.5t61.5 -25.5h63v-62q0 -37 25.5 -62.5t61.5 -25.5h726q36 0 61.5 25.5t25.5 62.5v725q0 36 -25.5 61.5t-62.5 25.5h1zM163 250q-27 0 -45 18t-18 45v725
q0 26 18 44t45 18h725q26 0 44 -18t18 -44v-725q0 -27 -18 -45t-44 -18h-725zM1100 163q0 -27 -18 -45t-44 -18h-725q-27 0 -45 18t-18 45v62h638q36 0 61.5 25.5t25.5 62.5v637h63q26 0 44 -18t18 -44v-725zM773 975q-47 0 -83 -31q-36 31 -82.5 31t-82.5 -31
q-36 31 -82.5 31t-82.5 -31q-36 31 -82 31q-35 0 -64.5 -17t-46.5 -46.5t-17 -64t17 -64t46.5 -46.5t63.5 -17q47 0 83 31q36 -31 82.5 -31t82.5 31q36 -31 82.5 -31t82.5 31q36 -31 83 -31q34 0 63.5 17t46.5 46.5t17 64t-17 64t-46.5 46.5t-63.5 17zM278 745q-43 0 -73 30
t-30 72.5t30 72.5t73 30q36 0 65 -24q-28 -35 -28 -78.5t28 -78.5q-29 -24 -65 -24zM340 848q0 32 20 60q20 -28 20 -60.5t-20 -60.5q-20 28 -20 60v1zM443 745q-37 0 -66 24q28 35 28 78.5t-28 78.5q29 24 65.5 24t65.5 -24q-28 -35 -28 -78.5t28 -78.5q-29 -24 -65 -24z
M505 848q0 32 20 60q20 -28 20 -60.5t-20 -60.5q-20 28 -20 61zM608 745q-37 0 -66 24q28 35 28 78.5t-28 78.5q29 24 65.5 24t65.5 -24q-28 -35 -28 -78.5t28 -78.5q-29 -24 -65 -24zM670 848q0 32 20 60q20 -28 20 -60.5t-20 -60.5q-20 28 -20 60v1zM773 745q-37 0 -66 24
q28 35 28 78.5t-28 78.5q29 24 66 24q42 0 72 -30t30 -72.5t-30 -72.5t-72 -30z" />
    <glyph glyph-name="apps-small" unicode="&#xea10;" 
d="M970 850q0 41 -20 75.5t-54.5 54.5t-75.5 20q-49 0 -90 -31q-41 31 -90 31t-90 -31q-41 31 -90 31t-90 -31q-41 31 -90 31q-41 0 -75.5 -20t-54.5 -54.5t-20 -75.5t20 -75.5t54.5 -54.5t75.5 -20q49 0 90 31q41 -31 90 -31t90 31q41 -31 90 -31t90 31q41 -31 90 -31
q41 0 75.5 20t54.5 54.5t20 75.5zM335 767q-25 -17 -55 -17q-41 0 -70.5 29.5t-29.5 70.5t29.5 70.5t70.5 29.5q30 0 55 -17q-25 -38 -25 -83t25 -83zM370 807q-10 21 -10 43t10 43q10 -21 10 -43t-10 -43zM515 767q-25 -17 -55 -17t-55 17q25 38 25 83t-25 83q25 17 55 17
t55 -17q-25 -38 -25 -83t25 -83zM550 807q-10 21 -10 43t10 43q10 -21 10 -43t-10 -43zM695 767q-25 -17 -55 -17t-55 17q25 38 25 83t-25 83q25 17 55 17t55 -17q-25 -38 -25 -83t25 -83zM730 807q-10 21 -10 43t10 43q10 -21 10 -43t-10 -43zM820 750q-30 0 -55 17
q25 38 25 83t-25 83q25 17 55 17q41 0 70.5 -29.5t29.5 -70.5t-29.5 -70.5t-70.5 -29.5zM1094 1068q-14 58 -60.5 95t-108.5 37h-750q-48 0 -88.5 -23t-63.5 -63.5t-23 -88.5v-750q0 -63 39 -110.5t99 -60.5q23 -47 68.5 -75.5t98.5 -28.5h705q51 0 94.5 26t69.5 69.5
t26 94.5v710q0 53 -29 99t-77 69zM50 275v750q0 35 16.5 63.5t45 45t63.5 16.5h750q35 0 63.5 -16.5t45 -45t16.5 -63.5v-750q0 -35 -16.5 -63.5t-45 -45t-63.5 -16.5h-750q-35 0 -63.5 16.5t-45 45t-16.5 63.5zM1150 190q0 -37 -19 -69.5t-51.5 -51.5t-69.5 -19h-705
q-31 0 -58.5 13.5t-47.5 36.5h726q48 0 88.5 23t63.5 63.5t23 88.5v731q23 -20 36.5 -47.5t13.5 -58.5v-710z" />
    <glyph glyph-name="arrow-down-large" unicode="&#xea11;" 
d="M829 721l-216 -216l-217 216l-17 -17l234 -234l233 234z" />
    <glyph glyph-name="arrow-down-small" unicode="&#xea12;" 
d="M882 718l-257 -258l-257 258l-36 -36l293 -292l293 292z" />
    <glyph glyph-name="arrow-left-light-large" unicode="&#xea13;" 
d="M684 734l-291 291h157v25h-200v-200h25v157l291 -291q41 -42 62.5 -94.5t21.5 -109.5v-362h25v363q0 60 -23.5 117.5t-67.5 103.5z" />
    <glyph glyph-name="arrow-left-light-small" unicode="&#xea14;" 
d="M778 763l-342 337h264v50h-350v-350h50v265l342 -338q52 -51 80 -121t28 -146v-460h50v460q0 86 -32 165t-90 138z" />
    <glyph glyph-name="arrow-left-normal-large" unicode="&#xea15;" 
d="M393 650l111 111l-18 18l-141 -141l141 -142l18 18l-111 111h357v-475h25v500h-382z" />
    <glyph glyph-name="arrow-left-normal-small" unicode="&#xea16;" 
d="M335 650l183 182l-36 36l-242 -243l242 -243l36 36l-183 182h515v-600h50v650h-565z" />
    <glyph glyph-name="arrow-left-sharp-large" unicode="&#xea17;" 
d="M375 668v157h-25v-200h200v25h-157l357 357v-857h25v918z" />
    <glyph glyph-name="arrow-left-sharp-small" unicode="&#xea18;" 
d="M400 685v265h-50v-350h350v50h-265l415 415v-1065h50v1185z" />
    <glyph glyph-name="arrow-left-u-turn-large" unicode="&#xea19;" 
d="M563 1050q-58 0 -107 -28.5t-77.5 -77.5t-28.5 -107v-169l-116 116l-18 -18l147 -146l146 146l-18 18l-116 -116v170q0 50 25.5 93t68.5 68.5t93.5 25.5t93.5 -25.5t68.5 -68.5t25.5 -93v-688h25v688q0 57 -28.5 106t-77.5 77.5t-106 28.5z" />
    <glyph glyph-name="arrow-left-u-turn-small" unicode="&#xea1a;" 
d="M625 1150q-76 0 -139 -36.5t-99.5 -99.5t-36.5 -139v-240l-182 183l-36 -36l243 -242l243 242l-36 36l-182 -183v240q0 62 30 113.5t81.5 81.5t113.5 30t113.5 -30t81.5 -81.5t30 -113.5v-875h50v875q0 76 -36.5 139t-99.5 99.5t-139 36.5z" />
    <glyph glyph-name="arrow-narrow-down-large" unicode="&#xea1b;" 
d="M843 686l-230 -146l-231 146l-14 -22l245 -154l244 154z" />
    <glyph glyph-name="arrow-narrow-down-small" unicode="&#xea1c;" 
d="M888 697l-263 -144l-263 144l-24 -44l287 -156l287 156z" />
    <glyph glyph-name="arrow-narrow-up-large" unicode="&#xea1d;" 
d="M613 690l-245 -154l14 -22l231 146l230 -146l14 22z" />
    <glyph glyph-name="arrow-narrow-up-small" unicode="&#xea1e;" 
d="M625 703l-287 -156l24 -44l263 144l263 -144l24 44z" />
    <glyph glyph-name="arrow-right-light-large" unicode="&#xea1f;" 
d="M625 1050v-25h157l-291 -291q-44 -46 -67.5 -103.5t-23.5 -118.5v-362h25v363q0 56 21.5 108.5t62.5 94.5l291 291v-157h25v200h-200z" />
    <glyph glyph-name="arrow-right-light-small" unicode="&#xea20;" 
d="M500 1150v-50h264l-342 -337q-58 -59 -90 -138t-32 -165v-460h50v460q0 76 28 146t80 121l342 338v-265h50v350h-350z" />
    <glyph glyph-name="arrow-right-normal-large" unicode="&#xea21;" 
d="M709 784l-18 -18l116 -116h-407v-500h25v475h382l-116 -116l18 -18l146 147z" />
    <glyph glyph-name="arrow-right-normal-small" unicode="&#xea22;" 
d="M718 868l-36 -36l183 -182h-565v-650h50v600h515l-183 -182l36 -36l242 243z" />
    <glyph glyph-name="arrow-right-sharp-large" unicode="&#xea23;" 
d="M800 825v-157l-400 400v-918h25v857l357 -357h-157v-25h200v200h-25z" />
    <glyph glyph-name="arrow-right-sharp-small" unicode="&#xea24;" 
d="M800 950v-265l-500 500v-1185h50v1065l415 -415h-265v-50h350v350h-50z" />
    <glyph glyph-name="arrow-right-u-turn-large" unicode="&#xea25;" 
d="M941 784l-116 -116v170q0 57 -28.5 106t-77.5 77.5t-106.5 28.5t-106.5 -28.5t-77.5 -77.5t-28.5 -107v-687h25v688q0 50 25.5 93t68.5 68.5t93.5 25.5t93.5 -25.5t68.5 -68.5t25.5 -93v-170l-116 116l-18 -18l147 -146l146 146z" />
    <glyph glyph-name="arrow-right-u-turn-small" unicode="&#xea26;" 
d="M1032 818l-182 -183v240q0 76 -36.5 139t-99.5 99.5t-139 36.5t-139 -36.5t-99.5 -99.5t-36.5 -139v-875h50v875q0 62 30 113.5t81.5 81.5t113.5 30t113.5 -30t81.5 -81.5t30 -113.5v-240l-182 183l-36 -36l243 -242l243 242z" />
    <glyph glyph-name="arrow-straight-down-large" unicode="&#xea27;" 
d="M691 284l-116 -116v857h-25v-857l-116 116l-18 -18l147 -146l146 146z" />
    <glyph glyph-name="arrow-straight-down-small" unicode="&#xea28;" 
d="M782 318l-182 -183v1065h-50v-1065l-182 183l-36 -36l243 -242l243 242z" />
    <glyph glyph-name="arrow-straight-up-large" unicode="&#xea29;" 
d="M563 1055l-147 -146l18 -18l116 116v-857h25v857l116 -116l18 18z" />
    <glyph glyph-name="arrow-straight-up-small" unicode="&#xea2a;" 
d="M575 1160l-243 -242l36 -36l182 183v-1065h50v1065l182 -183l36 36z" />
    <glyph glyph-name="arrow-up-large" unicode="&#xea2b;" 
d="M613 730l-234 -234l17 -17l217 216l216 -216l17 17z" />
    <glyph glyph-name="arrow-up-small" unicode="&#xea2c;" 
d="M625 735l-293 -292l36 -36l257 258l257 -258l36 36z" />
    <glyph glyph-name="audio-volume-large" unicode="&#xea2d;" 
d="M748 774q10 -9 23 -30q26 -37 38 -77q41 -129 -61 -241l19 -17q78 86 78 185q0 70 -39 140q-20 37 -39 57zM150 775v-350h224l226 -162v674l-226 -162h-224zM350 450h-175v300h175v-300zM375 745l200 143v-576l-200 143v290zM891 927l-17 -19q16 -13 39 -41
q43 -51 70 -107q39 -79 41 -158q4 -163 -148 -311l18 -17q159 155 155 329q-2 83 -42 166q-28 60 -74 113q-23 28 -42 45z" />
    <glyph glyph-name="audio-volume-small" unicode="&#xea2e;" 
d="M150 800v-350h217l233 -169v688l-233 -169h-217zM350 500h-150v250h150v-250zM400 762l150 109v-492l-150 109v274zM732 788q42 -44 56.5 -102t0 -116.5t-56.5 -102.5l36 -34q51 54 69 124.5t0 140.5t-69 124zM891 949l-32 -38v0q16 -14 36 -38q40 -48 66 -100
q36 -73 38 -146q4 -153 -141 -294l34 -36q162 156 157 332q-3 83 -42 165q-29 58 -73 111q-24 28 -43 44z" />
    <glyph glyph-name="aupeo-large" unicode="&#xea2f;" 
d="M655 1110l-3 -25q122 -13 223 -82q99 -67 155 -172q58 -108 58 -231q0 -61 -15 -120l24 -6q16 62 15 126q1 130 -60 243q-59 110 -163 181q-106 72 -234 86zM600 1088v25q-104 0 -199 -41q-92 -39 -163 -110t-110 -163q-40 -95 -40 -199q0 -92 32 -178.5t92 -156.5l19 17
q-58 66 -88.5 148t-29.5 170q0 132 66 246q65 110 175 175q114 67 246 67zM600 113q-89 0 -172 31t-150 90l-9 8l-17 -18l10 -9q70 -62 157 -94.5t181 -32.5q104 -1 200 40.5t169 116.5t110 172l-23 9q-36 -93 -105 -164t-160.5 -110.5t-190.5 -39.5v1zM475 366l400 234
l-400 234v-468zM500 791l325 -191l-325 -191v382z" />
    <glyph glyph-name="aupeo-small" unicode="&#xea30;" 
d="M600 1100v50q-112 0 -214 -43q-99 -42 -175 -118t-118 -175q-43 -102 -43 -214q0 -95 32 -185.5t93 -163.5l39 32q-55 67 -84.5 148.5t-29.5 168.5q0 136 68 252q67 113 180 180q116 68 252 68zM676 1145l-6 -50q120 -17 220 -88q97 -70 153 -176q57 -109 57 -231
q0 -58 -13 -113l49 -12q14 62 14 125q0 135 -63 254q-61 117 -168 193q-109 79 -243 98zM450 332l476 268l-476 268v-536zM500 782l324 -182l-324 -182v364zM600 100q-88 0 -171.5 30.5t-150.5 87.5l-33 -38q75 -63 166.5 -96.5t188.5 -33.5q111 0 211 42t177.5 118.5
t119.5 178.5l-46 19q-39 -93 -109 -162.5t-161.5 -107.5t-191.5 -38z" />
    <glyph glyph-name="back-large" unicode="&#xea31;" 
d="M724 831l-18 18l-236 -236l236 -237l18 18l-219 219z" />
    <glyph glyph-name="back-small" unicode="&#xea32;" 
d="M718 877l-36 36l-293 -288l293 -288l36 36l-257 252z" />
    <glyph glyph-name="blog-post-large" unicode="&#xea33;" 
d="M413 625h150q36 0 61.5 25.5t25.5 62.5v150q0 36 -25.5 61.5t-61.5 25.5h-150q-36 0 -62 -26.5t-26 -63.5v-147q0 -37 25.5 -62.5t62.5 -25.5zM350 860q0 26 18.5 45.5t44.5 19.5h150q26 0 44 -18t18 -44v-150q0 -27 -18 -45t-44 -18h-150q-26 0 -44.5 18.5t-18.5 43.5
v148zM921 1044l-17 -18q14 -12 32 -33q35 -41 56 -85q31 -62 31 -122q1 -121 -119 -227l17 -18q128 113 127 245q0 65 -32 131q-23 48 -60 91q-20 23 -35 36zM713 550h-450q-37 0 -62.5 -25.5t-25.5 -61.5v-313h625v313q0 36 -25.5 61.5t-61.5 25.5zM775 175h-575v288
q0 26 18 44t45 18h450q26 0 44 -18t18 -44v-288zM771 929q15 -16 28 -41q26 -46 25 -92q0 -64 -53 -117l18 -18q60 61 60 135q0 52 -29 106q-16 28 -31 44z" />
    <glyph glyph-name="blog-post-small" unicode="&#xea34;" 
d="M325 600h150q34 0 62.5 17t45.5 45.5t17 62.5v150q0 34 -17 62.5t-45.5 45.5t-62.5 17h-150q-34 0 -62.5 -17t-45.5 -45.5t-17 -62.5v-150q0 -34 17 -62.5t45.5 -45.5t62.5 -17zM250 875q0 31 22 53t53 22h150q31 0 53 -22t22 -53v-150q0 -31 -22 -53t-53 -22h-150
q-31 0 -53 22t-22 53v150zM742 963q16 -18 32 -45q28 -51 28 -102q-1 -70 -60 -128l36 -36q61 61 71 135q9 60 -16 123q-20 50 -55 87zM680 500h-559q-32 -6 -51.5 -27.5t-19.5 -52.5v-370h705v370q0 34 -21.5 57t-53.5 23zM705 100h-605v320q0 14 9 22q6 6 16 8h555
q12 0 18.5 -9t6.5 -21v-320zM951 1124l-32 -38q14 -12 35 -36q39 -45 64 -95q34 -69 34 -136q1 -133 -133 -250l32 -38q152 133 151 289q0 77 -38 154q-27 56 -71 107q-23 27 -42 43z" />
    <glyph glyph-name="bookmark-large" unicode="&#xea35;" 
d="M250 1125v-1068l338 338l337 -338v1068h-675zM900 118l-312 312l-313 -312v982h625v-982z" />
    <glyph glyph-name="bookmark-small" unicode="&#xea36;" 
d="M250 1200v-1185l350 350l350 -350v1185h-700zM900 135l-300 300l-300 -300v1015h600v-1015z" />
    <glyph glyph-name="brake-pad-alert-large" unicode="&#xea37;" 
d="M925 775v50h-25v-50h25zM413 575q0 -51 25 -94t68 -68.5t94 -25.5t94 25.5t68.5 68.5t25.5 94l-1 10l-25 -1l1 -9q0 -44 -22 -81.5t-59.5 -59t-81.5 -21.5t-81.5 21.5t-59 59t-21.5 81.5q0 49 27 90t72 60l-9 23q-53 -22 -84 -69t-31 -104zM1184 700l-271 488l-272 -488
h543zM1141 725h-457l229 412zM925 1025h-25v-150h25v150zM1163 575q0 -123 -51.5 -234.5t-144.5 -191.5l16 -19q98 84 151.5 200.5t53.5 244.5h-25zM1038 575q0 -119 -60 -221q-58 -99 -157 -157q-102 -59 -221 -59t-221 59q-99 58 -157 157q-59 102 -59 221t59 221
q58 99 157 157q102 59 221 59q45 1 89 -9l5 25q-46 10 -94 10q-125 0 -233 -64q-105 -61 -166 -166q-64 -108 -63.5 -233t63.5 -233q61 -105 166 -166q108 -63 233 -63t233 63q105 61 166 166q64 108 64 233h-25zM600 488q36 0 62 25.5t26 61.5t-26 62t-62 26t-61.5 -26
t-25.5 -62t25.5 -61.5t61.5 -25.5zM600 638q26 0 44 -18.5t18.5 -44.5t-18 -44t-44.5 -18t-44 18t-18 44t18 44.5t44 18.5zM38 575q0 105 37 202t108 175l-19 17q-73 -81 -112.5 -183t-38.5 -211q0 -122 47 -232t136 -194l17 18q-85 80 -130 185.5t-45 222.5z" />
    <glyph glyph-name="brake-pad-alert-small" unicode="&#xea38;" 
d="M590 350h50v100h-50v-100zM590 525h50v350h-50v-350zM187 963l-37 33q-73 -83 -111.5 -185t-38.5 -212q0 -127 51.5 -243t145.5 -201l33 37q-86 78 -133 184.5t-47 222.5q0 100 35.5 194t101.5 170zM600 1075q-129 0 -240 -65q-107 -63 -170 -170q-65 -111 -65 -240
t65 -240q63 -107 170 -170q111 -65 240 -65t240 65q107 63 170 170q65 111 65 240t-65 240q-63 107 -170 170q-111 65 -240 65zM600 175q-115 0 -214 58q-97 56 -153 153q-58 99 -58 214t58 214q56 97 153 153q99 58 214 58t214 -58q97 -56 153 -153q58 -99 58 -214
t-58 -214q-56 -97 -153 -153q-99 -58 -214 -58zM1051 995l-38 -33q66 -75 101.5 -169t35.5 -194q0 -119 -49 -227t-138 -186l33 -38q97 86 150.5 203.5t53.5 247.5q0 109 -38.5 211.5t-110.5 184.5z" />
    <glyph glyph-name="brake-pad-large" unicode="&#xea39;" 
d="M188 958l-19 17q-85 -98 -121 -223l24 -7q35 120 116 213zM1146 771q-37 113 -114 203l-19 -16q74 -86 109 -195zM88 380l-23 -9q49 -127 149 -220l17 19q-96 88 -143 210zM50 586q0 57 11 112l-25 5q-11 -58 -11 -117q0 -84 23 -165l24 7q-22 77 -22 158zM1160 722
l-25 -6q15 -64 15 -130q0 -91 -28 -176l24 -8q29 89 29 184q0 69 -15 136zM963 164l16 -19q98 88 149 209l-23 10q-49 -117 -142 -200zM600 763q-51 -1 -94 -26t-68.5 -68t-25 -94t25.5 -94t68 -68.5t94 -25.5t94 25.5t68.5 68.5t25.5 94t-25.5 94t-68.5 68.5t-94 25.5z
M600 413q-44 0 -81.5 21.5t-59 59t-22 81.5t21.5 81.5t59.5 59t81.5 22t81.5 -21.5t59 -59.5t22 -81.5t-21.5 -81.5t-59.5 -59t-81.5 -21.5zM600 663q-36 0 -61.5 -26t-25.5 -62t25.5 -61.5t61.5 -25.5t62 25.5t26 61.5t-26 62t-62 26zM600 513q-26 0 -44 18t-18 44t18 44.5
t44 18.5t44 -18.5t18.5 -44.5t-18 -44t-44.5 -18zM600 1038q-125 0 -233 -64q-105 -61 -166 -166q-64 -108 -63.5 -233t63.5 -233q61 -105 166 -166q108 -63 233 -63t233 63q105 61 166 166q64 108 64 233t-64 233q-61 105 -166 166q-108 64 -233 64zM600 138
q-119 0 -221 59q-99 58 -157 157q-59 102 -59 221t59 221q58 99 157 157q102 59 221 59.5t221 -59.5q99 -58 157 -157q60 -102 60 -221t-60 -221q-58 -99 -157 -157q-102 -59 -221 -59z" />
    <glyph glyph-name="brake-pad-small" unicode="&#xea3a;" 
d="M1170 787q-39 116 -119 208l-38 -33q74 -84 109 -190zM50 599q0 55 11 109l-49 10q-12 -59 -12 -119q0 -87 24 -169l48 14q-22 75 -22 155zM187 963l-37 33q-88 -100 -126 -228l48 -14q35 117 115 209zM600 1075q-129 0 -240 -65q-107 -63 -170 -170q-65 -111 -65 -240
t65 -240q63 -107 170 -170q111 -65 240 -65t240 65q107 63 170 170q65 111 65 240t-65 240q-63 107 -170 170q-111 65 -240 65zM600 175q-115 0 -214 58q-97 56 -153 153q-58 99 -58 214t58 214q56 97 153 153q99 58 214 58t214 -58q97 -56 153 -153q58 -99 58 -214
t-58 -214q-56 -97 -153 -153q-99 -58 -214 -58zM42 379q51 -130 155 -224l33 37q-95 86 -142 206zM1184 737l-49 -11q15 -63 15 -127q0 -89 -28 -173l48 -16q30 92 30 189q0 70 -16 138zM963 186l33 -38q102 90 155 214l-46 19q-49 -113 -142 -195z" />
    <glyph glyph-name="business-address-large" unicode="&#xea3b;" 
d="M1113 900h-613v132q1 23 -7 45t-24 38.5t-37 25.5t-44 9h-96q-32 -1 -59 -17.5t-42.5 -42.5t-15.5 -57v-133h-150v-787q0 -26 18.5 -44.5t43.5 -18.5h1088v788q0 25 -18.5 43.5t-44.5 18.5h1zM200 1033q0 37 27 63.5t66 28.5h95q37 0 63 -27t24 -66v-132h-175v125h-25
v-125h-75v133zM475 875v-215q0 -37 -24.5 -62t-60.5 -25.5t-62 25.5t-28 62v215h175zM1150 75h-1062q-16 0 -27 11t-11 27v762h225v-216q2 -47 35.5 -79.5t79.5 -32.5q30 1 55.5 15.5t40 40.5t14.5 57v215h613q15 0 26 -11t11 -27v-762zM200 375h700v25h-700v-25zM200 250
h500v25h-500v-25z" />
    <glyph glyph-name="business-address-small" unicode="&#xea3c;" 
d="M1125 900h-575v112q-3 39 -23 70.5t-52 49.5t-70 18h-115q-39 0 -71 -18.5t-50.5 -50.5t-18.5 -71v-110h-150v-725q0 -31 22 -53t53 -22h1125v725q0 29 -23 52t-52 23zM200 1010q0 38 26 64t64 26h115q38 0 65 -25.5t30 -64.5v-110h-150v100h-50v-100h-100v110zM500 850
v-175q0 -24 -12 -53.5t-28 -49.5q-19 -22 -35 -22t-35 22q-16 20 -28 49.5t-12 53.5v175h150zM1150 150h-1075q-10 0 -17.5 7t-7.5 18v675h250v-175q0 -32 15 -72q17 -44 44 -71q30 -32 66 -32t66 32q27 27 44 71q15 40 15 72v175h575q8 0 16.5 -8.5t8.5 -16.5v-675z
M150 300h700v50h-700v-50z" />
    <glyph glyph-name="calendar-events-large" unicode="&#xea3d;" 
d="M618 600q-55 0 -108 15v-22q53 -15 108 -15q71 0 109 23.5t38 68.5q0 89 -207 100h-10l5 110h192v20h-217l-5 -150q104 -2 157 -22t53 -58q0 -30 -22 -47q-29 -23 -93 -23zM950 1150h-875v-25h875v25zM1100 875v-765q0 -15 -11 -25t-24 -10h-705q-15 0 -25 11t-10 24v115
h365q5 0 9 4l247 247q4 4 4 9v540h-25v-525h-250v-250h-540q-15 0 -25 11t-10 24v740h-25v-740q0 -25 17.5 -42.5t42.5 -17.5h165v-115q0 -25 17.5 -42.5t42.5 -17.5h705q25 0 42.5 17.5t17.5 42.5v765h-25zM700 475h210l-210 -210v210zM228 605v-20h212v20h-90v300h-25v-2
l-97 -23v-20l90 20v-275h-90z" />
    <glyph glyph-name="calendar-events-small" unicode="&#xea3e;" 
d="M950 1200h-950v-50h950v50zM600 635q-80 10 -115 20v-40q35 -10 53 -14q30 -6 57 -6q75 0 114 29q36 27 36 71q0 94 -205 105l5 90h185v40h-225l-10 -165q76 0 129 -12q76 -18 76 -58q0 -28 -24 -43q-26 -17 -76 -17zM1100 900v-825q0 -12 -6.5 -18.5t-18.5 -6.5h-750
q-12 0 -18.5 6.5t-6.5 18.5v125h375q10 0 18 7l250 250q7 8 7 18v575h-50v-550h-250v-250h-575q-11 0 -18 7.5t-7 17.5v775h-50v-775q0 -31 22 -53t53 -22h175v-125q0 -33 21 -54t54 -21h750q33 0 54 21t21 54v825h-50zM700 450h165l-165 -165v165zM200 640v-40h225v40h-90
v290h-30l-105 -25v-40l90 20v-245h-90z" />
    <glyph glyph-name="camera-large" unicode="&#xea3f;" 
d="M600 825q-68 0 -125.5 -33.5t-91 -91t-33.5 -125.5t33.5 -125.5t91 -91t125.5 -33.5t125.5 33.5t91 91t33.5 125.5t-33.5 125.5t-91 91t-125.5 33.5zM600 350q-61 0 -112.5 30.5t-82 82t-30.5 112.5t30.5 112.5t82 82t112.5 30.5t112.5 -30.5t82 -82t30.5 -112.5
t-30.5 -112.5t-82 -82t-112.5 -30.5zM900 875v40q0 24 -18.5 42t-43.5 18h-478q-24 0 -42 -18.5t-18 -43.5v-38h-190q-24 0 -42 -18.5t-18 -43.5v-588h1040q24 0 42 18.5t18 44.5v587h-250zM1125 288q0 -16 -11 -27t-26 -11h-1013v563q0 14 10.5 25.5t24.5 11.5h215v63
q0 14 10.5 25.5t24.5 11.5h478q14 0 25.5 -10.5t11.5 -24.5v-65h250v-562z" />
    <glyph glyph-name="camera-small" unicode="&#xea40;" 
d="M900 850v25q0 33 -21 54t-54 21h-450q-33 0 -54 -21t-21 -54v-25h-175q-33 0 -54 -21t-21 -54v-575h1025q33 0 54 21t21 54v575h-250zM1100 275q0 -12 -6.5 -18.5t-18.5 -6.5h-975v525q0 12 6.5 18.5t18.5 6.5h225v75q0 12 6.5 18.5t18.5 6.5h450q12 0 18.5 -6.5
t6.5 -18.5v-75h250v-525zM600 800q-68 0 -125.5 -33.5t-91 -91t-33.5 -125.5t33.5 -125.5t91 -91t125.5 -33.5t125.5 33.5t91 91t33.5 125.5t-33.5 125.5t-91 91t-125.5 33.5zM600 350q-54 0 -100 27t-73 73t-27 100t27 100t73 73t100 27t100 -27t73 -73t27 -100t-27 -100
t-73 -73t-100 -27z" />
    <glyph glyph-name="cancel-large" unicode="&#xea41;" 
d="M605 613l194 193l-18 18l-193 -194l-194 194l-18 -18l194 -193l-194 -194l18 -18l194 194l196 -196l17 17z" />
    <glyph glyph-name="cancel-small" unicode="&#xea42;" 
d="M873 887l-36 36l-262 -263l-262 263l-36 -36l263 -262l-263 -262l36 -36l262 263l262 -263l36 36l-263 262z" />
    <glyph glyph-name="car-handover-large" unicode="&#xea43;" 
d="M1180 562q-25 20 -77 19q-28 -1 -54 -7l-275 -82q-3 20 -17 35q-22 23 -55 23h-267q-60 0 -119.5 -13.5t-108.5 -37.5q-38 -19 -75 -45v0q-18 -13 -27 -17q-13 -7 -33.5 -9.5t-58.5 -2.5h-13v-250h475q78 0 165 24q45 12 75 25l375 175l6 3q31 14 47 24q26 16 40 36
q17 24 17 55q0 29 -20 45zM1086 424l-6 -3l-242 -112l-133 -62q-27 -12 -71 -24q-85 -23 -159 -23h-450v200q51 1 75 8q19 6 46 25h1q35 25 71 43q46 23 103.5 36t113.5 13h268q21 0 34.5 -14.5t12.5 -36.5q1 -20 -12.5 -34.5t-34.5 -14.5h-328v-25h328q32 0 54 23
q17 18 18 43l280 84q25 6 53 6q39 0 56 -13q11 -9 11 -26q0 -34 -30 -59q-17 -14 -59 -34zM332 670q10 -20 29.5 -32.5t44 -12.5t45 14t30.5 36h286q9 -22 29.5 -36t46 -14t46.5 14.5t30 37.5h94q5 1 8.5 4.5t3.5 8.5v35q0 27 -1 39q-2 20 -7 31q-8 18 -23 31q-11 9 -24 15
q-9 3 -11 3l-160 52q-28 25 -70 46q-73 36 -154 36q-61 -1 -113 -12q-36 -9 -64 -23q-18 -8 -22 -12l-145 -80q-6 -4 -6 -11v-127q0 -4 2 -7q6 -10 22 -19q31 -16 83 -17zM405 650q-24 0 -40.5 17t-16.5 40.5t16.5 40.5t40.5 17t41 -17t17 -40.5t-17 -40.5t-41 -17zM843 650
q-24 0 -41 17t-17 40.5t17 40.5t40.5 17t40.5 -17t17 -40.5t-17 -40.5t-41 -17h1zM250 833l140 77v0q15 11 45 22q60 21 140 20q57 1 111 -19q38 -14 72 -37q17 -12 26 -20q2 -2 5 -3l163 -53q7 -1 16 -7q18 -10 26 -29q4 -8 5 -25q1 -11 1 -34v-22h-75v5q0 34 -24 58
t-58.5 24t-58.5 -24t-24 -58l1 -8h-274l1 7q0 35 -24.5 59t-58.5 24t-58 -24t-24 -58q0 -4 1 -12v-1q-32 2 -54 10q-13 5 -20 12v116z" />
    <glyph glyph-name="car-handover-small" unicode="&#xea44;" 
d="M289 651q13 -23 36 -37t50 -14t50 13.5t36 36.5h278q13 -23 36 -36.5t50 -13.5t50 13.5t36 36.5h119q10 0 17.5 7.5t7.5 17.5v40q0 32 -2 46q-2 23 -11 35q-14 30 -43 46q-15 8 -31 12h-1l-177 53q-28 32 -72 55q-72 38 -163 38q-99 0 -199 -35q-73 -26 -140 -67
q-36 -21 -57 -39q-9 -7 -9 -19v-140q0 -13 10.5 -20.5t32.5 -14.5q40 -13 96 -14zM375 650q-21 0 -35.5 14.5t-14.5 35.5t14.5 35.5t35.5 14.5t35.5 -14.5t14.5 -35.5t-14.5 -35.5t-35.5 -14.5zM825 650q-21 0 -35.5 14.5t-14.5 35.5t14.5 35.5t35.5 14.5t35.5 -14.5
t14.5 -35.5t-14.5 -35.5t-35.5 -14.5zM200 828q55 40 125 71q117 51 230 51q87 0 151 -39q33 -20 49 -41q5 -7 13 -9l189 -56q7 -1 16 -6q17 -9 26 -28q4 -6 5 -22q1 -10 1 -34v-15h-80q0 41 -29.5 70.5t-70.5 29.5t-70.5 -29.5t-29.5 -70.5h-250q0 41 -29.5 70.5
t-70.5 29.5t-70 -29t-30 -70q-47 3 -75 14v113zM1175 500q-28 22 -81 21q-29 -1 -56 -7l-269 -80q-11 29 -37 47.5t-57 18.5h-235q-59 0 -119.5 -15t-112.5 -43l-24 -13q-32 -17 -43 -21q-15 -7 -29 -8q-10 -1 -40 0h-72v-300h475q78 0 164 23q46 12 77 24l4 3l366 168l9 4
q30 15 46 25q27 18 41 39q18 26 18 60t-26 54h1zM1073 367l-8 -4l-239 -109q-131 -61 -130 -61h-1q-27 -11 -68 -22q-81 -21 -152 -21h-425v200h21q35 -1 49 0q18 2 37 10q14 6 51 25l24 13q46 25 100.5 38.5t107.5 13.5h235q20 0 35 -15t15 -35t-15 -35t-35 -15h-325v-50
h325q36 0 64 24t34 59l278 83q22 5 47 5q33 0 45 -10q7 -5 7 -16q0 -25 -22 -45q-16 -14 -55 -33z" />
    <glyph glyph-name="car-large" unicode="&#xea45;" 
d="M1173 475q0 10 1 29v0q1 22 1 33q4 73 -15 146l-2 3q-9 15 -31 37q-23 15 -54 24l-15 3q-14 3 -18 5.5t-9 11.5l-20 33h89v25h-104l-18 32q-23 33 -64 68l-27 17q-21 8 -47 8h-475q-26 0 -46 -8h-1q-16 -6 -25 -12q-40 -29 -71 -74l-18 -31h-104v-25h89l-20 -33
q-5 -9 -9 -11.5t-18 -5.5l-14 -3q-31 -4 -55.5 -24t-32.5 -40q-19 -73 -15 -145q0 -25 3 -59q-5 -58 -4 -109q2 -89 22 -111q8 -9 19 -9h138q10 -1 18.5 6t10.5 23l48 21h640l48 -21q2 -18 12 -25q6 -4 13 -4h3h139q13 0 22 10q13 14 18 52q6 54 -2 163zM1138 667
q6 -29 10 -56q-36 -30 -77 -36q-36 -5 -104 -9l-4 3l-67 31h6zM956 530q-12 -27 -29 -55q-22 -36 -39 -50v0v-1q-6 -5 -11 -7l-9 -2q-46 -13 -68 -15h-405q-23 1 -45 6q-27 5 -34 13q-47 44 -70 104q-3 7 -1.5 12.5t7.5 9.5q21 14 90 55h495l114 -53q9 -6 5 -17zM243 843
q28 41 64 67q6 4 20 8v0q17 7 38 7h475q21 0 37 -6l22 -13q38 -34 58 -62l39 -69h-792q33 57 39 68zM88 703q20 16 45 20l14 3q17 3 23 7q10 5 18 17h824q8 -12 18 -17q6 -4 23 -7l14 -3q26 -7 44 -19l14 -15l-227 -64h-609l-216 64q6 7 15 14zM62 667l222 -66h10l-55 -35
l-3 -2q-13 -4 -34 -3q-15 1 -67 9q-51 11 -83 39q3 28 10 58zM52 478q-2 37 -2 60q-1 18 0 41q34 -24 81 -34q66 -9 84 -9h4q-1 -12 4 -23q20 -51 58 -94l-232 -53q-1 53 3 112zM1138 277q-1 -2 -3 -2h-141q-1 4 -2 12v9l-67 29h-647l-70 -29v-8q0 -7 -1.5 -10.5t-1.5 -2.5
h-140q-11 5 -15 66l252 57q15 -12 51 -19q20 -3 42 -4h406q26 2 73 15l10 3q4 2 9 5l259 -58q-3 -51 -14 -63zM917 418q21 23 43 64q12 21 19 38q4 10 2 22q59 4 93 8q40 6 76 31q1 -24 0 -43q0 -12 -1 -33v0q-2 -20 -1 -31q5 -64 5 -109z" />
    <glyph glyph-name="car-search-large" unicode="&#xea46;" 
d="M243 793q27 39 61 67q7 4 20 8h1q16 7 37 7h188v25h-187q-27 0 -47 -8v0q-17 -6 -26 -12q-38 -30 -68 -74l-18 -31h-104v-25h89q-14 -23 -19 -30l-14 -20h369v25h-322q28 46 40 68zM208 248v-8q0 -7 -1.5 -10.5t-1.5 -2.5h-140q-2 1 -3 2q-11 12 -14 61l254 58
q14 -12 50 -19q21 -3 43 -4h180v25h-180q-23 1 -45 6q-27 5 -34 13q-47 44 -69 103l-24 -9q20 -52 58 -94l-234 -53q0 45 5 110v3q-2 17 -2 61v1q-1 16 -1 38q34 -24 81 -34l5 25q-52 11 -84 40q2 28 6 50l-24 5q-12 -62 -8 -125q0 -45 2 -63q-8 -108 -2 -163q5 -37 18 -52
q9 -9 22 -10h141q8 0 15 6q9 8 11 24l48 21h345v25h-347zM1173 425q-1 10 1 29v0q1 22 1 33q4 73 -15 146l-2 3q-9 15 -31 37q-23 15 -54 24l-15 3q-14 3 -18 5.5t-9 11.5l-20 33h89v25h-104l-18 32q-23 33 -64 68l-27 17q-21 8 -47 8h-115v-25h115q21 0 37 -6l22 -13
q38 -34 58 -62l39 -69h-296v-25h312q8 -12 17 -17q7 -4 24 -7l14 -3q26 -7 44 -19l14 -15l-227 -64h-298v-25h237l114 -53q9 -6 5 -17q-12 -27 -29 -55q-22 -36 -39 -50v0v-1q-6 -5 -11 -7l-10 -3q-45 -12 -67 -14h-75v-25h76q26 2 73 15l10 3q5 2 10 5l258 -58
q-3 -51 -14 -63q-1 -2 -3 -2h-141q-1 4 -2 12v9l-64 28l-153 1v-25h145l48 -21q2 -18 12 -25q6 -4 13 -4h3h139q13 0 22 10q13 14 18 52q6 54 -2 163zM896 550h6l236 67q7 -29 10 -56q-36 -30 -77 -36q-36 -5 -104 -9l-4 3zM917 368q21 23 43 64q12 22 19 38q4 10 2 22
q59 4 93 8q40 6 76 31q1 -24 0 -44q0 -11 -1 -32v0q-2 -20 -1 -31q5 -64 5 -109zM650 840q0 84 -42 156q-42 70 -112 112q-72 42 -156 42t-157 -42q-71 -42 -113 -112q-44 -72 -45 -156q1 -86 44 -159q42 -70 113 -112q72 -43 158 -43.5t156 38.5l298 -476l22 14l-299 475
q62 41 97.5 110t35.5 153zM340 550q-79 1 -145 40t-105 105t-40 145q1 77 41 144q39 64 104 102q68 39 145 39t144 -39q64 -38 102 -102q39 -67 39 -144q0 -83 -36.5 -149t-101.5 -103.5t-147 -37.5z" />
    <glyph glyph-name="car-search-small" unicode="&#xea47;" 
d="M193 811q-31 -62 -63 -107l40 -29q35 49 69 117q8 26 34 42q21 13 47 16h230v50h-233q-45 -5 -79 -29.5t-45 -59.5zM200 150h-120q-12 0 -21 6.5t-9 18.5v240q0 78 5 117l-50 6q-5 -41 -5 -123v-240q0 -32 23 -53.5t57 -21.5h170v100h350v50h-400v-100zM700 805
q0 93 -47 173q-46 78 -124 126q-80 48 -173 51q-71 2 -136 -23.5t-115.5 -74.5t-77.5 -113t-27 -135q3 -98 51 -180q48 -80 127 -126q82 -48 177 -48h21q78 2 145 38l293 -447l42 28l-292 445q65 48 101 123q37 76 35 163zM375 505h-20q-82 0 -152 41q-68 40 -109 109
q-42 71 -44 155q0 60 23 114.5t65.5 96t96 63t111.5 21.5h8q80 -2 149 -44q67 -41 107 -108q40 -69 40 -148v-1q2 -80 -33.5 -148t-99.5 -108.5t-142 -42.5zM1155 645l-73 54l-1 1h69v50h-107q-20 30 -35 65q-17 38 -50 61.5t-78 28.5h-130v-50h127q30 -3 52 -18.5t33 -41.5
q32 -72 84 -131l78 -58q7 -8 13 -36q13 -54 13 -155v-236q-4 -29 -30 -29h-120v100h-150v-50h100v-100h170q31 0 52.5 20t27.5 55v240q0 117 -17 179q-11 42 -28 51z" />
    <glyph glyph-name="car-small" unicode="&#xea48;" 
d="M402 600l-103 -69l99 -131h415l92 132l-102 68h-401zM787 450h-364l-52 69l47 31h369l48 -32zM1155 745l-73 54l-1 1h69v50h-107q-20 31 -35 65q-17 38 -50 61.5t-78 28.5h-560l-5 -1q-47 -10 -79.5 -35t-43.5 -59q-12 -28 -34 -60h-108v-50h72l-5 -7l-69 -51
q-19 -11 -31 -53q-17 -61 -17 -179v-240q0 -32 23 -53.5t57 -21.5h170v100l700 5v-100h170q31 0 52.5 20t27.5 55v240q0 117 -17 179q-11 42 -28 51zM1149 563q-44 -13 -103 -23q-13 -3 -28 -4h-7l9 41q3 22 18 35q13 11 34 14l70 19q5 -35 7 -82zM239 892q9 27 38 45
q20 12 46 18h554q30 -3 52 -18.5t33 -41.5q23 -51 55 -95h-833q37 51 55 92zM59 644l69 -18l7 -1q16 0 29.5 -13t15.5 -31l9 -40h-8q-15 2 -27 4q-59 10 -103 23q2 44 8 76zM1120 250h-120v100l-800 -5v-100h-120q-12 0 -21 6.5t-9 18.5v246q42 -11 96 -21q26 -4 42 -4
q27 0 40 14q11 11 11 29q1 10 -5 34l-4 21q-5 35 -31.5 59.5t-59.5 26.5l-68 18l4 7l68 50h921l60 -44q3 -3 6 -13l-69 -18q-36 -6 -61 -30.5t-30 -60.5l-4 -21q-6 -24 -5 -34q0 -18 11 -29q13 -14 40 -14q16 0 42 4q54 10 96 21v-232q-4 -29 -30 -29z" />
    <glyph glyph-name="caution-large" unicode="&#xea49;" 
d="M575 275h25v100h-25v-100zM575 750v-275h25v275h-25zM588 1113l-547 -988h1093zM588 1062l503 -912h-1007z" />
    <glyph glyph-name="caution-small" unicode="&#xea4a;" 
d="M550 300h50v100h-50v-100zM575 1127l-542 -977h1085zM575 1024l458 -824h-915zM550 800v-300h50v300h-50z" />
    <glyph glyph-name="charging-large" unicode="&#xea4b;" 
d="M1075 950v25h-200v100h-138q-59 0 -105 -16t-77 -47q-51 -51 -55 -137h-237q-15 0 -37 -6q-40 -11 -66 -39q-35 -39 -35 -105t35 -105q26 -28 66 -39q21 -6 37 -6h105q23 0 47 -11q26 -13 42 -34q18 -24 18 -55v-350h25v350q0 36 -20 66q-19 27 -49.5 43t-62.5 16h-105
q-14 0 -32 5q-33 9 -53 33q-28 32 -28 87t28 87q20 23 53 33q18 5 32 5h237q4 -86 55 -137q63 -63 183 -63h137v100h200v25h-200v175h200zM850 675h-112h-1q-53 0 -95 14t-70 42q-47 47 -47 131.5t47 131.5q56 56 167 56h111v-375z" />
    <glyph glyph-name="charging-small" unicode="&#xea4c;" 
d="M1050 850v50h-150v100h-149q-31 1 -70 -8q-75 -17 -121 -62q-51 -49 -58 -130h-211q-5 1 -18 -1q-21 -2 -40 -9q-26 -9 -43 -26q-35 -33 -35 -89t35 -89q24 -23 62 -32q19 -4 38 -4h60q18 0 27 -3q12 -5 17.5 -20t5.5 -47v-280h50v280q0 62 -24 91t-76 29h-61
q-8 -1 -24 2q-26 5 -41 20q-19 18 -19 53t19 53q15 14 40 19q13 3 26 3h212q7 -81 58 -130q43 -43 113 -60q40 -10 75 -10h152v100h150v50h-150v150h150zM850 600h-101v0q-25 0 -56 7q-62 13 -98 49q-45 43 -45 119t45 119q35 35 94 48q32 8 60 8h101v-350z" />
    <glyph glyph-name="climate-auto-large" unicode="&#xea4d;" 
d="M600 1053v-164q-2 -27 3 -63q9 -72 41 -130l21 -36q38 -67 51 -101q22 -53 22 -108.5t-16 -106.5q-20 -63 -58 -100q-46 -44 -114 -44v-25q78 0 130 49q43 40 65 109q17 57 18 117q-1 42 -11 82q-9 33 -28 71q-11 23 -38 70l-20 36q-29 52 -38 119q-5 33 -3 59v165
l90 -110l20 16l-122 149l-123 -149l20 -16zM900 1053v-164q-2 -27 3 -63q9 -72 41 -130l21 -36q38 -67 51 -101q22 -53 22 -108.5t-16 -106.5q-20 -63 -58 -100q-46 -44 -114 -44v-25q78 0 130 49q43 40 65 109q17 57 18 117q0 42 -11 82q-9 33 -28 71q-11 23 -38 70l-20 36
q-29 52 -38 119q-5 33 -3 59v165l90 -110l20 16l-122 149l-123 -149l20 -16zM313 175q44 0 81 22t59 59t22 81q0 49 -27.5 90t-72.5 61v362h75v25h-75v50h75v25h-75v50h75v25h-75v38q0 25 -18.5 43.5t-44 18.5t-44 -18.5t-18.5 -44.5v-573q-45 -19 -72.5 -60.5t-27.5 -90.5
q0 -45 22 -82t59 -59t81 -22h1zM275 1063q0 15 11 26t26.5 11t26.5 -11t11 -26v-363h-75v363zM267 468l8 3v204h75v-204l8 -3q41 -16 66.5 -52t25.5 -78q0 -38 -18.5 -69.5t-50 -50t-69 -18.5t-69 18.5t-50 50t-18.5 69.5q0 44 25.5 80t66.5 50zM150 75h900v25h-900v-25z
" />
    <glyph glyph-name="climate-auto-small" unicode="&#xea4e;" 
d="M550 1103v-253q0 -53 24 -107q14 -32 51 -90v0q38 -61 52 -93q23 -54 23 -110q0 -80 -34 -141q-29 -52 -78 -82q-44 -27 -88 -27v-50q61 0 118 37q59 37 94 103q38 71 38 160q0 46 -13 89q-11 36 -31 75q-13 24 -39 66v0q-34 53 -46 81q-21 46 -21 89v253l82 -85l36 34
l-143 149l-143 -149l36 -34zM175 150q48 0 88.5 23t63.5 63.5t23 88.5q0 52 -27 94t-73 63v318h100v50h-100v50h100v50h-100v50h100v50h-100v75q0 33 -21 54t-54 21t-54 -21t-21 -54v-643q-44 -21 -72 -64.5t-28 -92t23 -89t63.5 -63.5t88.5 -23zM150 1125q0 12 6.5 18.5
t18.5 6.5t18.5 -6.5t6.5 -18.5v-425h-50v425zM133 441l17 6v203h50v-203l17 -6q38 -12 60.5 -44t22.5 -72q0 -35 -16.5 -63.5t-45 -45t-63.5 -16.5t-63.5 16.5t-45 45t-16.5 63.5q0 39 23.5 71.5t59.5 44.5zM950 1105v-255q0 -53 24 -107q14 -32 51 -90v0q38 -61 52 -93
q23 -54 23 -110q0 -80 -34 -141q-29 -52 -78 -82q-44 -27 -88 -27v-50q61 0 118 37q59 37 94 103q38 71 38 160q0 46 -13 89q-11 36 -31 75q-13 24 -39 66v0q-34 53 -46 81q-21 46 -21 89v255l132 -133l36 36l-193 192l-193 -192l36 -36zM0 50v-50h1200v50h-1200z" />
    <glyph glyph-name="climate-electric-large" unicode="&#xea4f;" 
d="M675 438v362h75v25h-75v50h75v25h-75v50h75v25h-75v38q0 25 -18.5 43.5t-44 18.5t-44 -18.5t-18.5 -44.5v-573q-45 -19 -72.5 -60.5t-27.5 -91.5q0 -44 22 -81t59 -59t81.5 -22t81.5 22t59 59t22 81q0 49 -27.5 90t-72.5 61zM575 1013q0 15 11 26t26.5 11t26.5 -11
t11 -26v-363h-75v363zM613 150q-38 0 -69.5 18.5t-50 50t-18.5 69.5q0 44 25.5 80t66.5 50l8 3v204h75v-204l8 -3q41 -16 66.5 -52t25.5 -78q0 -38 -18.5 -69.5t-50 -50t-69.5 -18.5h1z" />
    <glyph glyph-name="climate-electric-small" unicode="&#xea50;" 
d="M750 950v50h-100v75q0 33 -21 54t-54 21t-54 -21t-21 -54v-643q-44 -21 -72 -64.5t-28 -92t23 -89t63.5 -63.5t88.5 -23t88.5 23t63.5 63.5t23 88.5q0 52 -27 94t-73 63v318h100v50h-100v50h100v50h-100v50h100zM550 1075q0 12 6.5 18.5t18.5 6.5t18.5 -6.5t6.5 -18.5
v-425h-50v425zM700 275q0 -35 -16.5 -63.5t-45 -45t-63.5 -16.5t-63.5 16.5t-45 45t-16.5 63.5q0 39 23.5 71.5t59.5 44.5l17 6v203h50v-203l17 -6q38 -12 60.5 -44t22.5 -72z" />
    <glyph glyph-name="climate-large" unicode="&#xea51;" 
d="M1084 994q-19 19 -45 38q-34 25 -64 37q-33 14 -73.5 17t-68.5 -7q-30 -11 -61 -42q-27 -26 -41 -51q-9 -19 -21 -55q-15 -45 -22 -86q-9 -51 -12 -97q-35 17 -76 17q-38 0 -70.5 -15t-54.5 -41q-1 47 -3 82q-6 114 -22 165q-10 34 -23 63q-21 44 -46 63
q-29 24 -62.5 27.5t-69 -13.5t-71.5 -59q-22 -28 -41 -61q-17 -29 -25 -60q-11 -45 -2 -84q11 -44 48 -81t86 -53q61 -20 134 -26q27 1 76 5q-16 -35 -16 -74t15 -71.5t42 -54.5q-19 1 -24 3h-3q-18 0 -60 -2q-55 -3 -90 -8q-76 -13 -123 -28q-40 -16 -65 -34
q-47 -34 -55 -81q-4 -30 10 -65q12 -29 28 -47.5t28 -29.5q21 -18 55 -38.5t70 -27.5q20 -4 47 -4q48 0 85.5 21t61.5 62q36 55 54 149q11 55 13 109q34 -16 73 -16q37 0 68.5 14t53.5 39l-2 -8q0 -13 2 -55q2 -52 6 -86q5 -63 28 -131q13 -38 41 -70q36 -43 81 -50
q8 -2 17 -2q27 0 55 14q23 11 39 26q19 19 31 34q20 25 41 59q34 57 34 106q0 53 -32 96q-23 32 -64 57q-55 36 -146 44q-54 5 -108 -1q18 35 18 77q0 37 -15 69.5t-41 54.5q76 0 142 6q107 9 168 35q24 9 38 17q10 5 23 15q29 24 38 42v0q14 28 14 58q0 22 -15 50
q-13 26 -31 44zM378 697q-68 5 -127 25q-42 14 -74.5 46t-41.5 70q-9 34 1 73q7 27 22 53q17 28 37 53q33 41 65 57q24 11 46 11q32 0 59 -23q17 -12 33 -42.5t28 -70.5q16 -48 22 -160q2 -38 2 -88q-47 -4 -72 -4zM749 501q52 5 103 1q84 -8 134 -40q35 -22 56 -50
q28 -37 28 -82q0 -42 -31 -94q-19 -32 -38 -55q-12 -14 -30 -32q-15 -15 -38 -25q-28 -11 -51 -7q-34 6 -64 39q-26 29 -39 65q-21 65 -27 125q-3 32 -5 81q-2 37 -2 56q3 8 4 18zM439 211q-21 -35 -53 -53t-74 -18q-24 0 -41 4q-31 6 -62.5 25t-50.5 35q-11 10 -26 27v0
q-13 14 -22 38q-13 30 -10 54q5 30 30.5 53t73.5 42q44 15 118 27q34 5 87 8q36 2 57 2q10 -2 36 -4q-4 -54 -14 -106q-17 -85 -49 -134zM738 603q0 -39 -18 -70.5t-49.5 -49.5t-70.5 -18t-70.5 18t-49.5 49.5t-17.5 70t18 70t49 49.5t70.5 18t70.5 -18t49.5 -49.5t18 -69.5
zM1094 853q-7 -13 -32 -33v0q-10 -9 -18 -13q-13 -7 -36 -15q-58 -25 -162 -35q-68 -6 -145 -5q4 44 11 88q7 38 21 81q11 35 20 53q12 22 36 45q27 27 53 37q23 8 59 5t64 -15t60 -35q24 -17 40.5 -34t28 -39.5t11.5 -37.5q0 -25 -11 -47z" />
    <glyph glyph-name="climate-small" unicode="&#xea52;" 
d="M1088 1028q-43 43 -103 69q-68 31 -133 27q-76 -6 -135 -61q-54 -55 -72 -153q-12 -69 -3 -140q-21 5 -42 5q-35 0 -65.5 -12t-54.5 -34q0 173 -29.5 270.5t-88.5 122.5q-44 18 -96 -7q-32 -15 -59 -42q-43 -44 -70 -103q-31 -68 -26 -132q6 -75 63 -132q52 -45 117 -66
t136 -16q-2 -12 -2 -24q0 -35 12.5 -66t34.5 -54q-328 -8 -384 -141q-19 -46 -2 -96q13 -43 46.5 -76t75.5 -58q68 -41 135 -41h2q82 1 144 66q54 62 78 139.5t12 152.5q32 -3 64 4.5t57 25.5q6 -322 133 -375q46 -20 99 0q45 15 81 51q39 39 65 84q42 69 41 133
q-1 76 -62 134q-67 64 -167 79q-62 8 -119 -2q4 20 4 40q0 36 -13.5 68.5t-37.5 56.5h26q183 0 284.5 29t126.5 88q16 39 -2.5 86.5t-70.5 99.5zM427 674q-62 -5 -118.5 13t-100.5 56q-44 44 -47 104q-3 51 23 107q23 48 59 83q18 19 38 30q23 12 42 12q11 1 20 -3
q35 -15 57 -83q32 -97 30 -290zM452 167q-46 -48 -107 -49h-2q-46 0 -97 27q-43 23 -78 58q-24 24 -34 54q-12 34 0 63q18 43 87 71q100 39 290 39h15l4 -14q10 -63 -11 -129t-67 -120zM750 500l18 7l8 4q18 4 46 4q51 2 96 -10q62 -17 105 -58q45 -44 46 -99
q1 -41 -23.5 -89t-68.5 -91q-24 -24 -54 -37q-40 -17 -71 -4q-41 17 -66 85q-37 98 -36 287v0v1zM725 600q0 -35 -16.5 -63.5t-45 -45t-63.5 -16.5q-19 0 -36 5v0q-40 11 -64.5 44t-24.5 76q0 35 16.5 63.5t45 45t63.5 16.5t63.5 -16.5t45 -45t16.5 -63.5zM1114 861
q-14 -33 -80 -55q-95 -31 -284 -31h-59q-7 61 3 124q15 84 58 128q47 44 108 48q52 3 107 -23q49 -23 85 -60q32 -32 49 -61q25 -42 13 -70z" />
    <glyph glyph-name="co2-emission-large" unicode="&#xea53;" 
d="M309 603q0 46 26 69.5t72 23.5q37 0 69 -13v29q-29 13 -74 13q-55 0 -91 -33t-36 -89q0 -58 37 -91q35 -30 93 -30q47 0 76 12v28q-31 -12 -75 -12q-41 0 -66 21q-31 24 -31 72zM900 900h-97q-19 42 -58 74q-65 51 -165 51q-104 0 -186 -75q-49 -45 -79 -102
q-199 9 -217 -129q-8 -52 13 -100.5t63 -80.5q-20 -16 -33 -43.5t-15 -63.5q-3 -53 17 -103q22 -56 67 -82q35 -21 78 -20q57 2 123 42q31 -44 77 -68.5t97 -24.5t97 27t73 73h75q77 0 120 37q32 29 44 80q6 29 6 75v61q34 13 59 45q38 51 38 137q1 92 -50 141t-147 49z
M985 550l-10 -2v-80q0 -50 -8 -80q-11 -41 -40 -63q-34 -25 -97 -25h-90l-3 -7q-24 -42 -65 -67.5t-88 -25.5t-89 24.5t-69 67.5l-7 10l-11 -6q-55 -36 -102 -43t-83 14q-38 23 -58 73q-17 43 -14 90q3 36 16.5 61.5t34.5 34.5l23 10l-21 12q-44 27 -66 72.5t-16 95.5
q10 69 73 93q45 17 126 14l9 -1l4 8q7 17 27 45q37 50 82 81q64 44 137 44t125 -29q37 -21 61 -55q12 -18 17 -32l3 -9h114q172 0 172 -165q1 -62 -21 -103q-16 -30 -42 -46q-13 -9 -24 -11zM847 466q2 2 7 5q26 18 35 28q16 16 16 33q0 23 -17.5 36t-49.5 13q-27 0 -53 -9
v-24q25 9 52 9q36 0 36 -25q0 -11 -11 -22q-8 -8 -33 -26l-51 -37v-20h140v23h-96zM624 725q-59 0 -93 -35q-33 -33 -33 -87.5t32.5 -87.5t92 -33t94.5 35q32 33 32 87.5t-32.5 87.5t-92.5 33zM624 509q-45 0 -69 27q-23 26 -23 67.5t23 67.5q24 27 68.5 27t68.5 -27
q23 -26 23 -67.5t-23 -67.5q-24 -27 -68 -27z" />
    <glyph glyph-name="co2-emission-small" unicode="&#xea54;" 
d="M649 750q-69 0 -109 -41q-38 -39 -38 -102.5t37 -101.5q39 -39 109 -39t109 40q39 39 39 103t-38 101q-39 40 -109 40zM649 497q-52 0 -81 32q-26 30 -26 79t26 78q29 33 81 33t80 -33q27 -29 27 -78t-27 -79q-28 -32 -80 -32zM277 608q0 53 30.5 81t84.5 28q43 0 81 -16
v34q-35 15 -87 15q-65 0 -106 -38q-42 -39 -42 -104q0 -69 43 -107q41 -35 109 -35q55 0 89 13v33q-36 -13 -89 -13q-47 0 -77 24q-36 28 -36 85zM919 450q2 2 8 6q32 22 44 34q18 20 18 41q0 28 -21 44t-60 16q-34 0 -65 -12v-29q30 12 63 12q44 0 44 -32q0 -13 -13 -26
q-9 -10 -41 -32l-61 -45v-25h171v28h-117zM980 950h-138q-26 54 -75 91q-77 59 -192 59q-121 0 -218 -84q-59 -52 -97 -121q-115 -4 -177 -36q-54 -27 -74 -77q-14 -37 -14 -102q0 -48 34 -95q23 -33 60 -62q-29 -33 -39 -85q-7 -39 -4 -84q2 -28 6 -43q53 -130 148 -154
q48 -11 102 5q37 11 73 34q38 -46 90 -71t110 -25q64 0 117 26t86 74h152q45 0 83 23.5t60 64t22 87.5v126q38 16 63 57q37 59 37 162q0 78 -39 133q-32 46 -87 72q-44 21 -89 25zM1068 545l-23 -2v-168q0 -34 -15.5 -62.5t-42 -45.5t-57.5 -17h-179l-7 -12q-26 -42 -70 -65
t-99 -23q-52 0 -97.5 24.5t-76.5 69.5l-16 22l-21 -17q-7 -6 -23 -15q-28 -17 -56 -25q-39 -11 -73 -3q-70 18 -112 119q-7 34 -4 73q5 78 48 106l34 22l-35 21q-26 16 -50 40q-48 47 -48 93q0 41 4 60q6 31 25 52q23 24 68 37q51 14 134 16h15l7 14q9 21 30 51q41 56 92 91
q72 49 154 49t140 -33q42 -24 68 -63q14 -20 19 -36l5 -18h172q20 -1 46 -10q49 -17 79 -50q42 -46 42 -119t-19 -118q-15 -33 -37 -49q-12 -7 -21 -9v0z" />
    <glyph glyph-name="code-large" unicode="&#xea55;" 
d="M463 550h-338v-425h425v338q0 36 -25.5 61.5t-62.5 25.5h1zM525 150h-375v375h313q26 0 44 -18t18 -44v-313zM650 1075v-337q0 -37 25.5 -62.5t61.5 -25.5h338v425h-425zM1050 675h-312q-27 0 -45 18t-18 45v312h375v-375zM650 375h175v175h-175v-175zM675 525h125v-125
h-125v125zM225 225h225v225h-225v-225zM250 425h175v-175h-175v175zM650 125h175v175h-175v-175zM675 275h125v-125h-125v125zM225 750h225v225h-225v-225zM250 950h175v-175h-175v175zM900 125h175v175h-175v-175zM925 275h125v-125h-125v125zM900 375h175v175h-175v-175z
M925 525h125v-125h-125v125zM975 975h-225v-225h225v225zM950 775h-175v175h175v-175zM125 650h338q36 0 61.5 25.5t25.5 62.5v337h-425v-425zM150 1050h375v-312q0 -27 -18 -45t-44 -18h-313v375z" />
    <glyph glyph-name="code-small" unicode="&#xea56;" 
d="M150 750h300v300h-300v-300zM200 1000h200v-200h-200v200zM50 50h500v500h-500v-500zM100 500h400v-400h-400v400zM650 1150v-500h500v500h-500zM1100 700h-400v400h400v-400zM150 150h300v300h-300v-300zM200 400h200v-200h-200v200zM1050 1050h-300v-300h300v300z
M1000 800h-200v200h200v-200zM950 50h200v200h-200v-200zM1000 200h100v-100h-100v100zM650 350h200v200h-200v-200zM700 500h100v-100h-100v100zM950 350h200v200h-200v-200zM1000 500h100v-100h-100v100zM650 50h200v200h-200v-200zM700 200h100v-100h-100v100zM50 650
h500v500h-500v-500zM100 1100h400v-400h-400v400z" />
    <glyph glyph-name="connect-key-large" unicode="&#xea57;" 
d="M475 125q16 0 27 11t11 26.5t-11 26.5t-27 11t-27 -11t-10.5 -26.5t11 -26.5t26.5 -11zM475 175q5 0 9 -3.5t4 -9t-4 -9t-9 -3.5t-9 3.5t-3.5 9t4 9t8.5 3.5zM550 1025h-150v-25h150v25zM954 846l-18 -17q44 -45 67.5 -104.5t21.5 -124.5q2 -61 -21.5 -121t-67.5 -108
l18 -17q48 52 73 116t23 130q2 69 -23 134t-73 112zM884 721l-18 -17q18 -20 27 -47.5t7 -57.5q2 -29 -7 -56.5t-27 -46.5l18 -17q21 23 32 55t9 65q2 34 -9 66.5t-32 55.5zM713 1125h-475q-26 0 -44.5 -18.5t-18.5 -44.5v-924q0 -26 18.5 -44.5t44.5 -18.5h475
q25 0 43.5 18.5t18.5 43.5v926q0 25 -18.5 43.5t-44.5 18.5h1zM750 138q0 -16 -11 -27t-27 -11h-474q-16 0 -27 11t-11 27v87h550v-87zM750 250h-550v813q0 15 11 26t26 11h476q15 0 26 -11t11 -26v-813zM475 863q-16 0 -26.5 -11t-10.5 -27t10.5 -27t26.5 -10.5t27 11
t11 26.5t-11 27t-27 11zM475 813q-5 0 -9 3.5t-3.5 8.5t4 9t8.5 4t9 -4t4 -9t-4 -8.5t-9 -4.5v1zM483 925h-7q-25 1 -47.5 -7.5t-39.5 -24.5q-37 -35 -39 -86v-7q0 -38 20 -70.5t55 -49.5v-323l63 -62l64 64l-26 78l25 51l-25 50l25 50l-26 52v38q35 12 55 44t20 77
q1 25 -7.5 47.5t-24.5 39.5q-35 37 -86 39h1zM509 700l-9 -3v-62l24 -47l-25 -50l25 -50l-25 -50l24 -72l-35 -36l-38 38v328l-7 3q-32 14 -50 41t-18 60v7q2 40 31 67t69 26h7q40 -2 67.5 -31t26.5 -69t-18 -66.5t-49 -33.5z" />
    <glyph glyph-name="connect-key-small" unicode="&#xea58;" 
d="M500 150h-50v-50h50v50zM1043 892l-36 -34q48 -52 72.5 -119.5t20.5 -139.5q4 -71 -20.5 -138.5t-72.5 -118.5l36 -34q55 59 83 135t24 156q4 81 -24 157.5t-83 135.5zM906 724q25 -28 36 -60t8 -64q0 -36 -11 -66.5t-32 -50.5l36 -36q27 28 42 67t15 83q4 42 -10.5 83
t-45.5 76zM775 1200h-600q-33 0 -54 -21t-21 -54v-1050q0 -33 21 -54t54 -21h600q33 0 54 21t21 54v1050q0 33 -21 54t-54 21zM800 75q0 -12 -6.5 -18.5t-18.5 -6.5h-600q-12 0 -18.5 6.5t-6.5 18.5v125h650v-125zM800 250h-650v875q0 12 6.5 18.5t18.5 6.5h600
q12 0 18.5 -6.5t6.5 -18.5v-875zM475 1100q-48 0 -88.5 -23t-63.5 -63.5t-23 -88.5q0 -52 27 -94t73 -63v-403l77 -77l129 161l-51 76l50 75l-55 83v85q46 21 73 63t27 94q0 48 -23 88.5t-63.5 63.5t-88.5 23zM517 809l-17 -6v-136l45 -67l-50 -75l49 -74l-71 -89l-23 23
v418l-17 6q-38 12 -60.5 44t-22.5 72q0 35 16.5 63.5t45 45t63.5 16.5t63.5 -16.5t45 -45t16.5 -63.5q0 -40 -22.5 -72t-60.5 -44z" />
    <glyph glyph-name="consumption-large" unicode="&#xea59;" 
d="M488 1084l-11 -14q-81 -115 -155 -243q-147 -250 -147 -354q0 -86 43 -162q42 -73 113 -116q73 -45 156.5 -45t156.5 45q71 43 113 116q43 76 43 162q0 103 -147 353q-75 130 -155 244zM488 175q-77 0 -144 41q-65 40 -104 108q-40 69 -40 149q0 90 124 308
q72 126 163 260q92 -134 164 -261q124 -218 124 -307q0 -78 -41 -148q-39 -68 -104 -108q-67 -42 -142 -42zM815 945l-10 14l-10 -14q-38 -56 -81 -126l22 -13l69 109q61 -89 106 -170q76 -136 76 -192q-1 -68 -43 -118.5t-106 -62.5l4 -24q49 9 87 38t60 72.5t23 93.5
q0 70 -95 234q-50 85 -102 159z" />
    <glyph glyph-name="consumption-small" unicode="&#xea5a;" 
d="M596 1139l-21 30l-20 -30q-46 -64 -99 -148q-103 -163 -167 -293q-89 -179 -89 -268q0 -102 50 -190q49 -85 134 -135q87 -52 191 -55h21q101 5 184 58q80 52 126 136q47 87 44 186q0 88 -89 266q-64 130 -167 294zM595 100h-19q-90 2 -166 48q-74 44 -116 117
q-44 76 -44 165q0 102 135 343q81 146 190 308q109 -163 190 -309q135 -243 135 -342v-1q2 -86 -38 -161q-39 -73 -109 -117q-72 -46 -158 -51z" />
    <glyph glyph-name="content-activities-large" unicode="&#xea5b;" 
d="M400 475h575v25h-575v-25zM400 725h575v25h-575v-25zM1063 975h-863v-132l-155 -155l155 -156v-219q0 -37 25.5 -62.5t61.5 -25.5h863v663q0 36 -25.5 61.5t-62.5 25.5h1zM1125 250h-837q-27 0 -45 18t-18 45v230l-145 145l145 144v118h838q26 0 44 -18t18 -44v-638z" />
    <glyph glyph-name="content-activities-small" unicode="&#xea5c;" 
d="M350 450h600v50h-600v-50zM350 700h600v50h-600v-50zM1025 1000h-875v-165l-146 -160l146 -160v-190q0 -34 17 -62.5t45.5 -45.5t62.5 -17h875v675q0 34 -17 62.5t-45.5 45.5t-62.5 17zM1100 250h-825q-31 0 -53 22t-22 53v210l-129 140l129 140v135h825q31 0 53 -22
t22 -53v-625z" />
    <glyph glyph-name="cubic-capacity-large" unicode="&#xea5d;" 
d="M788 1100h-300q-37 0 -62.5 -25.5t-25.5 -61.5v-388h156l-105 -250q-34 -3 -63 -22t-46 -49.5t-17 -67t18.5 -68t50 -50t69 -18.5t69 18.5t50 50t18.5 69.5q0 51 -33 90l126 297h182v388q0 36 -25.5 61.5t-61.5 25.5zM575 238q0 -32 -15 -57.5t-40.5 -40.5t-56.5 -15
t-57 15t-41 41t-15 56.5t15 56.5t41 41t57 15t56.5 -15t40.5 -40.5t15 -57.5v1zM548 346q-31 24 -70 28l105 251h83zM850 650h-425v275h425v-275zM850 950h-425v63q0 26 18 44t45 18h300q26 0 44 -18t18 -44v-63z" />
    <glyph glyph-name="cubic-capacity-small" unicode="&#xea5e;" 
d="M775 1150h-350q-34 0 -62.5 -17t-45.5 -45.5t-17 -62.5v-475h231l-94 -204q-18 4 -37 4q-40 0 -74.5 -20.5t-55 -55t-20.5 -75t20 -75t54.5 -54.5t75.5 -20t75.5 20t54.5 54.5t20 74.5t-18 73.5t-49 53.5l103 224h314v475q0 34 -17 62.5t-45.5 45.5t-62.5 17zM500 200
q0 -42 -29 -71t-71 -29t-71 29t-29 71q0 26 14 49t37 37t49 14q42 0 71 -29t29 -71zM850 600h-500v300h500v-300zM850 950h-500v75q0 31 22 53t53 22h350q31 0 53 -22t22 -53v-75z" />
    <glyph glyph-name="dashboard-large" unicode="&#xea5f;" 
d="M75 75h250v250h-250v-250zM100 300h200v-200h-200v200zM75 475h250v250h-250v-250zM100 700h200v-200h-200v200zM75 875h250v250h-250v-250zM100 1100h200v-200h-200v200zM875 475h250v250h-250v-250zM900 700h200v-200h-200v200zM875 75h250v250h-250v-250zM900 300h200
v-200h-200v200zM875 1125v-250h250v250h-250zM1100 900h-200v200h200v-200zM475 875h250v250h-250v-250zM500 1100h200v-200h-200v200zM475 75h250v250h-250v-250zM500 300h200v-200h-200v200zM475 475h250v250h-250v-250zM500 700h200v-200h-200v200z" />
    <glyph glyph-name="dashboard-small" unicode="&#xea60;" 
d="M0 0h300v300h-300v-300zM50 250h200v-200h-200v200zM900 1200v-300h300v300h-300zM1150 950h-200v200h200v-200zM450 900h300v300h-300v-300zM500 1150h200v-200h-200v200zM0 450h300v300h-300v-300zM50 700h200v-200h-200v200zM900 0h300v300h-300v-300zM950 250h200
v-200h-200v200zM450 0h300v300h-300v-300zM500 250h200v-200h-200v200zM900 450h300v300h-300v-300zM950 700h200v-200h-200v200zM0 900h300v300h-300v-300zM50 1150h200v-200h-200v200zM450 450h300v300h-300v-300zM500 700h200v-200h-200v200z" />
    <glyph glyph-name="dealer-request-large" unicode="&#xea61;" 
d="M100 1125h373v-400h25v425h-423v-862q0 -37 25.5 -62.5t61.5 -25.5h88v25h-87q-27 0 -45 18t-18 45v187h150v25h-150v625zM1013 675h-713v-512q0 -37 25.5 -62.5t62.5 -25.5h712v513q0 36 -25.5 61.5t-62.5 25.5h1zM1075 100h-687q-27 0 -45 18t-18 45v487h688
q26 0 44 -18t18 -44v-488zM703 293l-253 192l-15 -20l268 -203l270 206l-16 19z" />
    <glyph glyph-name="dealer-request-small" unicode="&#xea62;" 
d="M725 257l-285 218l-30 -40l315 -241l315 241l-30 40zM50 1150h400v-400h50v450h-500v-1025q0 -33 21 -54t54 -21h125v50h-125q-12 0 -18.5 6.5t-6.5 18.5v225h150v50h-150v700zM1075 700h-825v-575q0 -34 17 -62.5t45.5 -45.5t62.5 -17h825v575q0 34 -17 62.5t-45.5 45.5
t-62.5 17zM1150 50h-775q-31 0 -53 22t-22 53v525h775q31 0 53 -22t22 -53v-525z" />
    <glyph glyph-name="dealer-search-large" unicode="&#xea63;" 
d="M575 375h-375v625h148v25h-173v-862q0 -37 25.5 -62.5t61.5 -25.5h338v448h-25v-148zM575 100h-312q-27 0 -45 18t-18 45v187h375v-250zM500 1000h75v-347h25v372h-100v-25zM804 644q44 38 68.5 92t24.5 114q1 75 -36.5 138t-100.5 100t-137.5 37t-137.5 -37t-100.5 -100
t-37 -138t37.5 -138t100 -100t138 -37q89 0 161 53l226 -310l20 14zM623 600q-68 0 -125.5 33.5t-91 91t-33.5 125.5t33.5 125.5t91 91t125 33.5t125 -33.5t91 -91t34 -125.5t-33.5 -125.5t-91.5 -91t-125.5 -33.5h1z" />
    <glyph glyph-name="dealer-search-small" unicode="&#xea64;" 
d="M550 400h-400v700h195v50h-245v-1025q0 -33 21 -54t54 -21h425v450h-50v-100zM550 100h-375q-12 0 -18.5 6.5t-6.5 18.5v225h400v-250zM847 638q48 46 75 106q28 62 28 131q0 88 -44 164q-44 73 -117 117q-76 44 -164 44t-164 -44q-73 -44 -117 -117q-44 -76 -44 -164
t44 -164q44 -73 117 -117q76 -44 164 -44q100 0 183 57l252 -347l40 30zM625 600q-75 0 -138 37t-100 100t-37 138t37 138t100 100t138 37t138 -37t99 -99q38 -64 38 -139t-38 -139q-36 -62 -99 -99t-138 -37zM550 650h50v450h-50v-450z" />
    <glyph glyph-name="direct-mail-large" unicode="&#xea65;" 
d="M600 466l-417 319l-16 -20l433 -331l433 331l-16 20zM1088 1000h-1038v-737q0 -26 18.5 -44.5t44.5 -18.5h1037v738q0 25 -18.5 43.5t-44.5 18.5h1zM1125 225h-1012q-16 0 -27 11t-11 27v712h1013q15 0 26 -11t11 -27v-712z" />
    <glyph glyph-name="direct-mail-small" unicode="&#xea66;" 
d="M1025 1000h-975v-675q0 -34 17 -62.5t45.5 -45.5t62.5 -17h975v675q0 34 -17 62.5t-45.5 45.5t-62.5 17zM1100 250h-925q-31 0 -53 22t-22 53v625h925q31 0 53 -22t22 -53v-625zM600 482l-335 263l-30 -40l365 -287l365 287l-30 40z" />
    <glyph glyph-name="discussion-large" unicode="&#xea67;" 
d="M188 1100q-38 0 -69.5 -18.5t-50 -50t-18.5 -69.5v-905l293 293h670q37 0 68.5 18.5t50 50t18.5 68.5v613h-962zM1125 488q0 -32 -15 -57.5t-40.5 -40.5t-57.5 -15h-680l-257 -257v845q0 31 15 56.5t40.5 40.5t57.5 15h937v-587z" />
    <glyph glyph-name="discussion-small" unicode="&#xea68;" 
d="M175 1150q-48 0 -88.5 -23t-63.5 -63.5t-23 -88.5v-982l335 307h727q31 2 58 15.5t46 35t27.5 47.5t6.5 52v700h-1025zM1129 384q-13 -15 -31 -24t-38 -10h-745l-265 -243v868q0 35 16.5 63.5t45 45t63.5 16.5h975v-652q3 -36 -21 -64z" />
    <glyph glyph-name="distance-large" unicode="&#xea69;" 
d="M960 698q-35 0 -68 -13t-59 -38q-28 -27 -44 -63.5t-16 -75.5q-1 -63 86 -205q46 -73 94 -136l10 -13l9 13q48 64 93 136q87 142 87 205q-1 51 -27.5 94.5t-70 69.5t-94.5 26zM962 196q-55 76 -96 145q-69 115 -68 166v0q0 35 14 66.5t38 55.5q22 21 49.5 32.5t56.5 11.5
h4q44 0 82 -22.5t61 -60.5t24 -83q0 -50 -68 -166q-41 -69 -97 -145zM963 603q-37 0 -63.5 -26t-26.5 -62.5t26.5 -63t64.5 -26.5t63 26t25 63.5t-26 63t-64 25.5h1zM963 450q-27 0 -46 19t-19 45t19 45t46 19t45.5 -18.5t19 -45.5t-18.5 -45.5t-47 -18.5h1zM675 1006
l275 -127v-129h25v138q0 8 -7 11l-301 137q-2 2 -5 1l-5 -1l-294 -135l-295 135q-6 3 -12 -0.5t-6 -10.5v-687q0 -8 7 -11l300 -163q2 -1 5 -1h1v0q3 -1 5 1l295 159l116 -59l12 22l-116 59v661zM350 196l-275 149v661l275 -127v-683zM650 345l-275 -149v684l275 126v-661z
" />
    <glyph glyph-name="distance-small" unicode="&#xea6a;" 
d="M775 840h-10q-57 0 -106.5 -30t-79 -80.5t-29.5 -109.5v-11q3 -76 101 -247q50 -89 103 -166l21 -30l21 30q58 86 110 178q94 169 94 241q0 61 -30.5 112.5t-82 82t-112.5 30.5zM775 255q-63 97 -109 184q-64 119 -66 171v10q0 45 22.5 84.5t60.5 62.5t82 23h10
q47 0 87.5 -23.5t64 -64t23.5 -89t-64 -170.5q-46 -88 -111 -188zM1138 961l-350 210q-12 8 -25 1l-339 -184l-388 185q-13 5 -24.5 -2t-11.5 -21v-800q0 -15 13 -22l400 -215q6 -3 12 -3t12 3l160 85l-24 44l-123 -65v768l300 163v-168h50v166l300 -180v-743l-113 64
l-24 -44l150 -85q12 -7 24.5 0.5t12.5 21.5v800q0 14 -12 21zM400 177l-350 188v745l350 -166v-767z" />
    <glyph glyph-name="document-pdf-large" unicode="&#xea6b;" 
d="M619 399h-79v-199h79q51 0 80 27.5t29 73t-28.5 72t-80.5 26.5zM621 223h-52v153h52q38 0 58 -21t20 -55.5t-20 -55.5t-58 -21zM820 285h104v23h-104v68h121v23h-149v-199h28v85zM397 399h-78v-199h28v74h49q44 0 65 18q20 16 20 45q0 62 -84 62zM391 297h-44v79h44
q34 0 47.5 -9.5t13.5 -29.5t-14 -30t-47 -10zM768 1150h-593v-1100h875v818zM775 1107l232 -232h-232v232zM1025 75h-825v1050h550v-275h275v-775z" />
    <glyph glyph-name="document-pdf-small" unicode="&#xea6c;" 
d="M950 100h-750v950h500v-250h250v-100h50v160l-240 240h-610v-1050h850v150h-50v-100zM750 1040l190 -190h-190v190zM608 590v-290h115q74 0 116.5 40t42.5 105q0 67 -41.5 106t-117.5 39h-115zM840 445q0 -51 -28 -80q-31 -31 -86 -31h-77v222h77q55 0 86 -31
q28 -30 28 -80zM1176 556v34h-217v-290h41v123h151v34h-151v99h176zM301 590v-290h42v108h71q64 0 95 26q28 23 28 66q0 90 -121 90h-115zM495 500q0 -30 -19 -43q-21 -15 -69 -15h-64v114h64q48 0 68 -13.5t20 -42.5z" />
    <glyph glyph-name="documents-large" unicode="&#xea6d;" 
d="M300 375h575v25h-575v-25zM300 225h575v25h-575v-25zM300 525h575v25h-575v-25zM743 1150h-593v-1100h875v818zM750 1107l232 -232h-232v232zM1000 75h-825v1050h550v-275h275v-775z" />
    <glyph glyph-name="documents-small" unicode="&#xea6e;" 
d="M350 250h500v50h-500v-50zM350 400h500v50h-500v-50zM735 1100h-535v-1000h800v735zM750 1015l165 -165h-165v165zM950 150h-700v900h450v-250h250v-650zM350 550h500v50h-500v-50z" />
    <glyph glyph-name="edit-large" unicode="&#xea6f;" 
d="M809 913l50 102q6 14 1 28.5t-17 20.5l-91 45q-14 6 -28 1t-20 -17l-404 -810v-195l157 116l341 687l78 -39l-157 -314l22 -11l168 336zM325 137v123l99 -50zM442 229l-113 57l335 672l111 -56zM786 925l-111 55l51 102q2 3 7 4.5t9 -0.5l90 -45q3 -1 4.5 -6t-0.5 -9z
" />
    <glyph glyph-name="edit-small" unicode="&#xea70;" 
d="M806 916l45 95q11 17 7 38q-5 26 -33 44l-116 53q-20 13 -43.5 5t-38.5 -30l-375 -800l-2 -299l221 184l314 665l102 -48l-120 -252l46 -22l140 298zM300 128v143l109 -52zM443 258l-135 64l297 633l135 -63zM761 937l-135 64l45 95q6 9 14 6l116 -53q4 -3 6 -6.5t0 -6.5
z" />
    <glyph glyph-name="editorial-large" unicode="&#xea71;" 
d="M275 375h650v25h-650v-25zM275 575h650v25h-650v-25zM525 900h-250v-225h250v225zM500 700h-200v175h200v-175zM275 475h650v25h-650v-25zM575 675h350v25h-350v-25zM963 1125h-813v-937q0 -37 25.5 -62.5t61.5 -25.5h813v938q0 36 -25.5 61.5t-62.5 25.5h1zM1025 125
h-787q-27 0 -45 18t-18 45v912h788q26 0 44 -18t18 -44v-913zM575 873h350v25h-350v-25zM575 775h350v25h-350v-25z" />
    <glyph glyph-name="editorial-small" unicode="&#xea72;" 
d="M250 550h700v50h-700v-50zM250 400h700v50h-700v-50zM550 900h-300v-200h300v200zM500 750h-200v100h200v-100zM650 700h300v50h-300v-50zM1025 1200h-925v-1125q0 -31 22 -53t53 -22h925v1125q0 31 -22 53t-53 22zM1050 50h-875q-10 0 -17.5 7t-7.5 18v1075h875
q10 0 17.5 -7t7.5 -18v-1075zM650 850h300v50h-300v-50z" />
    <glyph glyph-name="electric-charge-level-empty-large" unicode="&#xea73;" 
d="M135 675l188 306l-21 13l-212 -344h247l-212 -276v126h-25v-175h175v25h-137l250 325h-253zM1038 1100h-475q-26 0 -44.5 -18.5t-18.5 -44.5v-899q0 -26 18.5 -44.5t43.5 -18.5h476q25 0 43.5 18.5t18.5 43.5v901q0 25 -18.5 43.5t-44.5 18.5h1zM1075 138q0 -16 -11 -27
t-26 -11h-475q-16 0 -27 11t-11 27v900q0 15 11 26t26 11h476q15 0 26 -11t11 -26v-900zM575 225h450v25h-450v-25z" />
    <glyph glyph-name="electric-charge-level-empty-small" unicode="&#xea74;" 
d="M650 300h400v50h-400v-50zM173 650l198 286l-42 28l-252 -364h245l-172 -206v81h-50v-175h175v50h-97l250 300h-255zM1075 1100h-450q-33 0 -54 -21t-21 -54v-800q0 -33 21 -54t54 -21h450q33 0 54 21t21 54v800q0 33 -21 54t-54 21zM1100 225q0 -12 -6.5 -18.5
t-18.5 -6.5h-450q-12 0 -18.5 6.5t-6.5 18.5v800q0 12 6.5 18.5t18.5 6.5h450q12 0 18.5 -6.5t6.5 -18.5v-800z" />
    <glyph glyph-name="electric-charge-level-full-large" unicode="&#xea75;" 
d="M575 400h450v25h-450v-25zM135 675l188 306l-21 13l-212 -344h247l-212 -276v126h-25v-175h175v25h-137l250 325h-253zM575 575h450v25h-450v-25zM575 225h450v25h-450v-25zM575 750h450v25h-450v-25zM1038 1100h-475q-26 0 -44.5 -18.5t-18.5 -44.5v-899
q0 -26 18.5 -44.5t43.5 -18.5h476q25 0 43.5 18.5t18.5 43.5v901q0 25 -18.5 43.5t-44.5 18.5h1zM1075 138q0 -16 -11 -27t-26 -11h-475q-16 0 -27 11t-11 27v900q0 15 11 26t26 11h476q15 0 26 -11t11 -26v-900zM575 925h450v25h-450v-25z" />
    <glyph glyph-name="electric-charge-level-full-small" unicode="&#xea76;" 
d="M650 300h400v50h-400v-50zM650 450h400v50h-400v-50zM173 650l198 286l-42 28l-252 -364h245l-172 -206v81h-50v-175h175v50h-97l250 300h-255zM650 900h400v50h-400v-50zM1075 1100h-450q-33 0 -54 -21t-21 -54v-800q0 -33 21 -54t54 -21h450q33 0 54 21t21 54v800
q0 33 -21 54t-54 21zM1100 225q0 -12 -6.5 -18.5t-18.5 -6.5h-450q-12 0 -18.5 6.5t-6.5 18.5v800q0 12 6.5 18.5t18.5 6.5h450q12 0 18.5 -6.5t6.5 -18.5v-800zM650 600h400v50h-400v-50zM650 750h400v50h-400v-50z" />
    <glyph glyph-name="electric-charge-level-half-large" unicode="&#xea77;" 
d="M575 225h450v25h-450v-25zM135 675l188 306l-21 13l-212 -344h247l-212 -276v126h-25v-175h175v25h-137l250 325h-253zM575 575h450v25h-450v-25zM575 400h450v25h-450v-25zM1038 1100h-475q-26 0 -44.5 -18.5t-18.5 -44.5v-899q0 -26 18.5 -44.5t43.5 -18.5h476
q25 0 43.5 18.5t18.5 43.5v901q0 25 -18.5 43.5t-44.5 18.5h1zM1075 138q0 -16 -11 -27t-26 -11h-475q-16 0 -27 11t-11 27v900q0 15 11 26t26 11h476q15 0 26 -11t11 -26v-900z" />
    <glyph glyph-name="electric-charge-level-half-small" unicode="&#xea78;" 
d="M650 300h400v50h-400v-50zM173 650l198 286l-42 28l-252 -364h245l-172 -206v81h-50v-175h175v50h-97l250 300h-255zM650 450h400v50h-400v-50zM1075 1100h-450q-33 0 -54 -21t-21 -54v-800q0 -33 21 -54t54 -21h450q33 0 54 21t21 54v800q0 33 -21 54t-54 21zM1100 225
q0 -12 -6.5 -18.5t-18.5 -6.5h-450q-12 0 -18.5 6.5t-6.5 18.5v800q0 12 6.5 18.5t18.5 6.5h450q12 0 18.5 -6.5t6.5 -18.5v-800zM650 600h400v50h-400v-50z" />
    <glyph glyph-name="electric-charge-level-onequarter-large" unicode="&#xea79;" 
d="M1038 1100h-475q-26 0 -44.5 -18.5t-18.5 -44.5v-899q0 -26 18.5 -44.5t43.5 -18.5h476q25 0 43.5 18.5t18.5 43.5v901q0 25 -18.5 43.5t-44.5 18.5h1zM1075 138q0 -16 -11 -27t-26 -11h-475q-16 0 -27 11t-11 27v900q0 15 11 26t26 11h476q15 0 26 -11t11 -26v-900z
M575 225h450v25h-450v-25zM135 675l188 306l-21 13l-212 -344h247l-212 -276v126h-25v-175h175v25h-137l250 325h-253zM575 400h450v25h-450v-25z" />
    <glyph glyph-name="electric-charge-level-onequarter-small" unicode="&#xea7a;" 
d="M650 300h400v50h-400v-50zM173 650l198 286l-42 28l-252 -364h245l-172 -206v81h-50v-175h175v50h-97l250 300h-255zM650 450h400v50h-400v-50zM1075 1100h-450q-33 0 -54 -21t-21 -54v-800q0 -33 21 -54t54 -21h450q33 0 54 21t21 54v800q0 33 -21 54t-54 21zM1100 225
q0 -12 -6.5 -18.5t-18.5 -6.5h-450q-12 0 -18.5 6.5t-6.5 18.5v800q0 12 6.5 18.5t18.5 6.5h450q12 0 18.5 -6.5t6.5 -18.5v-800z" />
    <glyph glyph-name="electric-charge-level-threequarter-large" unicode="&#xea7b;" 
d="M575 400h450v25h-450v-25zM575 225h450v25h-450v-25zM135 675l188 306l-21 13l-212 -344h247l-212 -276v126h-25v-175h175v25h-137l250 325h-253zM575 575h450v25h-450v-25zM1038 1100h-475q-26 0 -44.5 -18.5t-18.5 -44.5v-899q0 -26 18.5 -44.5t43.5 -18.5h476
q25 0 43.5 18.5t18.5 43.5v901q0 25 -18.5 43.5t-44.5 18.5h1zM1075 138q0 -16 -11 -27t-26 -11h-475q-16 0 -27 11t-11 27v900q0 15 11 26t26 11h476q15 0 26 -11t11 -26v-900zM575 750h450v25h-450v-25z" />
    <glyph glyph-name="electric-charge-level-threequarter-small" unicode="&#xea7c;" 
d="M650 300h400v50h-400v-50zM173 650l198 286l-42 28l-252 -364h245l-172 -206v81h-50v-175h175v50h-97l250 300h-255zM650 450h400v50h-400v-50zM650 750h400v50h-400v-50zM650 600h400v50h-400v-50zM1075 1100h-450q-33 0 -54 -21t-21 -54v-800q0 -33 21 -54t54 -21h450
q33 0 54 21t21 54v800q0 33 -21 54t-54 21zM1100 225q0 -12 -6.5 -18.5t-18.5 -6.5h-450q-12 0 -18.5 6.5t-6.5 18.5v800q0 12 6.5 18.5t18.5 6.5h450q12 0 18.5 -6.5t6.5 -18.5v-800z" />
    <glyph glyph-name="electric-range-large" unicode="&#xea7d;" 
d="M310 650l188 306l-21 13l-212 -344h247l-212 -276v126h-25v-175h175v25h-137l250 325h-253zM150 1050q0 19 11 34.5t26 15.5h476q15 0 26 -15.5t11 -34.5v-800h25v800q0 29 -18 52t-44 23h-475q-27 0 -45 -23t-18 -52v-950h-75v-25h350v25h-250v950zM1125 125h-650v100
h-25v-225h25v100h650v-100h25v225h-25v-100zM1150 1050v75h-25v-75h-75v75h-25v-75h-50v-75q0 -15 4 -35q8 -37 31 -60q25 -25 65 -29v-488q0 -18 -10 -28t-27 -10h-50q-16 0 -27 11t-11 26v276q0 25 -18.5 43.5t-44.5 18.5h-112v-25h113q15 0 26 -11t11 -27v-274
q0 -26 18.5 -44.5t44.5 -18.5h50q27 0 44.5 17.5t17.5 44.5v489q40 4 65 29q22 23 31 59q4 20 4 36v75h-50zM1175 975v0q0 -13 -3 -29q-7 -31 -25 -49q-22 -22 -59.5 -22t-59.5 22q-18 18 -25 49q-3 16 -3 29v50h175v-50z" />
    <glyph glyph-name="electric-range-small" unicode="&#xea7e;" 
d="M850 625v-250q0 -29 23 -52t52 -23h50q29 0 52 23t23 52v377q36 7 61 33t34 70q6 24 5 45v100h-50v100h-50v-100h-50v100h-50v-100h-50v-99q-1 -20 4 -43q9 -46 36 -74q24 -25 60 -32v-377q0 -8 -8.5 -16.5t-16.5 -8.5h-50q-8 0 -16.5 8.5t-8.5 16.5v250q0 29 -23 52
t-52 23h-75v-50h75q8 0 16.5 -8.5t8.5 -16.5zM976 819q-17 17 -23 50q-3 17 -3 31v50h150v-51q1 -10 -3 -30q-6 -33 -23.5 -51t-48.5 -18t-49 18v1zM578 650h-256l174 261l-42 28l-226 -339h244l-172 -206v81h-50v-175h175v50h-97zM1150 250v-100h-650v100h-50v-250h50v100
h650v-100h50v250h-50zM150 1025q0 12 6.5 18.5t18.5 6.5h450q12 0 18.5 -6.5t6.5 -18.5v-775h50v775q0 33 -21 54t-54 21h-450q-33 0 -54 -21t-21 -54v-875h-50v-50h300v50h-200v875z" />
    <glyph glyph-name="engine-large" unicode="&#xea7f;" 
d="M1038 750h-63v-97h-50v65l-180 157h-145v75h125v25h-275v-25h125v-75h-217l-158 -129v-146h-100v125h-25v-300h25v150h100v-150h182l120 -150h355q24 0 43 16q25 22 25 64v70h50v-75h63q36 0 61.5 25.5t25.5 61.5v228q0 36 -25 60.5t-62 24.5zM1100 438q0 -27 -18 -45
t-44 -18h-38v75h-100v-95q0 -33 -20 -47q-10 -8 -22 -8h-344l-120 150h-169v284l142 116h368l165 -143v-79h100v97h38q27 0 44.5 -17t17.5 -43v-227z" />
    <glyph glyph-name="engine-small" unicode="&#xea80;" 
d="M1075 800h-75v-100h-64l-185 200h-151v100h150v50h-350v-50h150v-100h-208l-192 -142v-158h-100v150h-50v-350h50v150h100v-150h209l130 -150h376q19 0 37 9q21 11 34 30q14 24 14 56v55h50v-100h75q34 0 62.5 17t45.5 45.5t17 62.5v250q0 34 -17 62.5t-45.5 45.5
t-62.5 17zM1150 425q0 -31 -22 -53t-53 -22h-25v100h-150v-105q0 -26 -14 -37q-8 -8 -21 -8h-354l-130 150h-181v282l158 118h371l185 -200h136v100h25q31 0 53 -22t22 -53v-250z" />
    <glyph glyph-name="erase-large" unicode="&#xea81;" 
d="M972 1025h-372v50h50v25h-125v-25h50v-50h-372l-102 -150h973zM217 1000h741l68 -100h-877zM925 175q0 -21 -14.5 -35.5t-35.5 -14.5h-575q-21 0 -35.5 14.5t-14.5 35.5v625h-25v-625q0 -32 21.5 -53.5t53.5 -21.5h575q32 0 53.5 21.5t21.5 53.5v625h-25v-625z" />
    <glyph glyph-name="erase-small" unicode="&#xea82;" 
d="M850 225q0 -8 -8.5 -16.5t-16.5 -8.5h-500q-11 0 -18 7.5t-7 17.5v525h-50v-525q0 -31 22 -53t53 -22h500q29 0 52 23t23 52v525h-50v-525zM918 950h-318v50h50v50h-150v-50h50v-50h-318l-105 -150h896zM258 900h634l35 -50h-704z" />
    <glyph glyph-name="facebook-large" unicode="&#xea83;" 
d="M650 690v45q0 17 11 41q12 26 30 42q21 20 44 20h60v110h-127q-51 -8 -87 -38q-30 -25 -49 -65q-16 -32 -23 -72q-6 -29 -7 -59l1 -24h-125v-110h125v-330h147v330h148v110h-148z" />
    <glyph glyph-name="facebook-small" unicode="&#xea84;" 
d="M740 840h60v110h-130q-50 -7 -86 -37q-31 -25 -50 -65q-15 -33 -23 -74q-5 -29 -6 -59v-25h-125v-110h125v-330h145v330h150v110h-145v45q0 19 11.5 44t29.5 42q21 19 44 19z" />
    <glyph glyph-name="favorite-large" unicode="&#xea85;" 
d="M1152 741l-391 58l-173 354l-174 -354l-391 -58l281 -275l-66 -389l350 184l349 -184l-66 389zM903 123l-315 166l-316 -166l59 351l-254 250l354 52l157 321l156 -321l354 -52l-254 -250z" />
    <glyph glyph-name="favorite-small" unicode="&#xea86;" 
d="M1144 753l-392 55l-178 354l-166 -354l-392 -55l282 -277l-66 -392l348 183l348 -183l-66 392zM862 176l-282 147l-282 -147l54 318l-228 223l318 45l134 286l143 -286l317 -45l-228 -223z" />
    <glyph glyph-name="feed-large" unicode="&#xea87;" 
d="M300 478v-25q41 0 75.5 -20.5t54.5 -55t20 -74.5h25q0 47 -23.5 87t-64 64t-87.5 23v1zM300 700v-25q102 0 189 -51q85 -50 135 -135q51 -87 51 -189h25q0 108 -55 202q-53 90 -143 143q-94 55 -202 55zM1013 1125h-913v-825h13q50 0 93 -25.5t68.5 -68.5t25.5 -94v-12
h800v938q0 36 -25.5 61.5t-62.5 25.5h1zM1075 125h-750q-3 53 -30.5 97.5t-72 72t-97.5 30.5v775h888q26 0 44 -18t18 -44v-913zM300 925v-25q122 0 233 -47q108 -46 191 -129t129 -191q47 -111 47 -233h25q0 127 -49 243q-48 112 -134.5 198.5t-198.5 134.5
q-116 49 -243 49z" />
    <glyph glyph-name="feed-small" unicode="&#xea88;" 
d="M350 750v-50q93 0 175 -49q79 -47 126 -126q49 -82 49 -175h50q0 108 -55 202q-53 90 -143 143q-94 55 -202 55zM350 550v-50q40 0 74.5 -20.5t55 -55t20.5 -74.5h50q0 53 -27.5 99t-73.5 73.5t-99 27.5zM350 950v-50q114 0 216 -43q99 -41 174.5 -116.5t116.5 -174.5
q43 -102 43 -216h50q0 124 -46 236q-45 108 -127.5 190.5t-190.5 127.5q-112 46 -236 46zM1075 1150h-975v-850h25q47 0 87.5 -23.5t64 -64t23.5 -87.5v-25h850v975q0 31 -22 53t-53 22zM1100 150h-751q-6 51 -33.5 94.5t-71 71t-94.5 33.5v751h925q10 0 17.5 -7t7.5 -18
v-925z" />
    <glyph glyph-name="filter-large" unicode="&#xea89;" 
d="M109 1000l373 -400q8 -7 13 -18t5 -24v-420l200 143v277q0 24 19 43l372 399h-982zM701 619q-26 -26 -26 -61v-264l-150 -107v371q0 18 -7 34.5t-19 26.5l-333 356h868z" />
    <glyph glyph-name="filter-small" unicode="&#xea8a;" 
d="M120 1000l357 -413q23 -22 23 -52v-407l200 134v273q0 30 24 54l356 411h-960zM687 623q-18 -18 -27.5 -41t-9.5 -47v-247l-100 -66v313q0 24 -9.5 46.5t-26.5 39.5l-284 329h740z" />
    <glyph glyph-name="forward-large" unicode="&#xea8b;" 
d="M494 849l-18 -18l219 -218l-219 -219l18 -18l236 237z" />
    <glyph glyph-name="forward-small" unicode="&#xea8c;" 
d="M518 913l-35 -36l256 -252l-256 -252l35 -36l293 288z" />
    <glyph glyph-name="fuel-large" unicode="&#xea8d;" 
d="M200 675h450v25h-450v-25zM725 1050q0 29 -18 52t-44 23h-475q-27 0 -45 -23t-18 -52v-950h-75v-25h750v25h-75v950zM700 100h-550v950q0 19 11 34.5t26 15.5h476q15 0 26 -15.5t11 -34.5v-950zM921 1121l-17 -17l221 -222v-519q0 -16 -9.5 -27t-22.5 -11h-105
q-16 0 -27 11t-11 26v276q0 25 -18.5 43.5t-44.5 18.5h-112v-25h113q15 0 26 -11t11 -27v-274q0 -26 18.5 -44.5t44.5 -18.5h105q23 0 40 18.5t17 43.5v531z" />
    <glyph glyph-name="fuel-range-large" unicode="&#xea8e;" 
d="M150 1050q0 19 11 34.5t26 15.5h476q15 0 26 -15.5t11 -34.5v-800h25v800q0 29 -18 52t-44 23h-475q-27 0 -45 -23t-18 -52v-950h-75v-25h350v25h-250v950zM921 1121l-17 -17l221 -222v-519q0 -18 -10 -28t-27 -10h-100q-16 0 -27 11t-11 26v276q0 25 -18.5 43.5
t-44.5 18.5h-112v-25h113q15 0 26 -11t11 -27v-274q0 -26 18.5 -44.5t44.5 -18.5h100q27 0 44.5 17.5t17.5 44.5v531zM1125 125h-650v100h-25v-225h25v100h650v-100h25v225h-25v-100zM600 488q0 62 -86 212q-44 76 -91 145l-10 14l-11 -14q-47 -69 -91 -145
q-86 -150 -86 -212q0 -52 25 -95t68 -68t94.5 -25t94.5 25t68 68t25 95zM413 325q-45 0 -82.5 21.5t-59 59t-21.5 82.5q0 50 67 172q41 74 95 155q55 -81 96 -155q67 -122 67 -172q0 -45 -21.5 -82.5t-59 -59t-81.5 -21.5z" />
    <glyph glyph-name="fuel-range-small" unicode="&#xea8f;" 
d="M850 625v-250q0 -29 23 -52t52 -23h100q29 0 52 23t23 52v510l-207 208l-36 -36l193 -192v-490q0 -8 -8.5 -16.5t-16.5 -8.5h-100q-8 0 -16.5 8.5t-8.5 16.5v250q0 29 -23 52t-52 23h-75v-50h75q8 0 16.5 -8.5t8.5 -16.5zM150 1025q0 12 6.5 18.5t18.5 6.5h450
q12 0 18.5 -6.5t6.5 -18.5v-775h50v775q0 33 -21 54t-54 21h-450q-33 0 -54 -21t-21 -54v-875h-50v-50h300v50h-200v875zM1150 250v-100h-650v100h-50v-250h50v100h650v-100h50v250h-50zM600 525q0 72 -83 227q-45 84 -96 162l-21 31l-21 -31q-51 -78 -96 -162
q-83 -155 -83 -227q0 -65 25.5 -116.5t71 -80t103.5 -28.5t103.5 28.5t71 80t25.5 116.5zM400 350q-49 0 -85 26q-32 23 -49 65q-16 38 -16 84q0 49 54 159q40 80 96 170q56 -90 96 -170q54 -110 54 -159q0 -46 -16 -84q-17 -42 -49 -65q-36 -26 -85 -26z" />
    <glyph glyph-name="fuel-small" unicode="&#xea90;" 
d="M200 650h400v50h-400v-50zM893 1093l-36 -36l193 -192v-490q0 -12 -6.5 -18.5t-18.5 -6.5h-100q-12 0 -18.5 6.5t-6.5 18.5v250q0 29 -23 52t-52 23h-75v-50h75q8 0 16.5 -8.5t8.5 -16.5v-250q0 -33 21 -54t54 -21h100q33 0 54 21t21 54v510zM700 1025q0 33 -21 54
t-54 21h-450q-33 0 -54 -21t-21 -54v-875h-50v-50h700v50h-50v875zM650 150h-500v875q0 12 6.5 18.5t18.5 6.5h450q12 0 18.5 -6.5t6.5 -18.5v-875z" />
    <glyph glyph-name="fuel-tank-level-empty-large" unicode="&#xea91;" 
d="M238 859l-11 -14q-47 -69 -91 -145q-86 -150 -86 -212q0 -52 25 -95t68 -68t94.5 -25t94.5 25t68 68t25 95q0 62 -86 212q-44 76 -91 145zM238 325q-45 0 -82.5 21.5t-59 59t-21.5 81.5q0 51 67 173q41 74 96 155q54 -81 95 -155q67 -122 67 -172q0 -45 -21.5 -82.5
t-59 -59t-81.5 -21.5zM575 225h450v25h-450v-25zM1038 1100h-475q-26 0 -44.5 -18.5t-18.5 -44.5v-899q0 -26 18.5 -44.5t43.5 -18.5h476q25 0 43.5 18.5t18.5 43.5v901q0 25 -18.5 43.5t-44.5 18.5h1zM1075 138q0 -16 -11 -27t-26 -11h-475q-16 0 -27 11t-11 27v900
q0 15 11 26t26 11h476q15 0 26 -11t11 -26v-900z" />
    <glyph glyph-name="fuel-tank-level-empty-small" unicode="&#xea92;" 
d="M250 945l-21 -31q-51 -78 -96 -162q-83 -155 -83 -227q0 -65 25.5 -116.5t71 -80t104 -28.5t106.5 32.5t71 87.5l1 2q10 32 14 49q7 28 7 54q0 72 -83 227q-45 84 -96 162zM382 439q-18 -42 -53 -65.5t-79 -23.5q-49 0 -85 26q-32 23 -49 65q-16 38 -16 84q0 49 54 159
q40 80 96 170q56 -90 96 -170q54 -110 54 -159q0 -20 -6 -44q-3 -14 -12 -42zM1075 1100h-450q-33 0 -54 -21t-21 -54v-800q0 -33 21 -54t54 -21h450q33 0 54 21t21 54v800q0 33 -21 54t-54 21zM1100 225q0 -12 -6.5 -18.5t-18.5 -6.5h-450q-12 0 -18.5 6.5t-6.5 18.5v800
q0 12 6.5 18.5t18.5 6.5h450q12 0 18.5 -6.5t6.5 -18.5v-800zM650 300h400v50h-400v-50z" />
    <glyph glyph-name="fuel-tank-level-full-large" unicode="&#xea93;" 
d="M575 400h450v25h-450v-25zM575 225h450v25h-450v-25zM238 859l-11 -14q-47 -69 -91 -145q-86 -150 -86 -212q0 -52 25 -95t68 -68t94.5 -25t94.5 25t68 68t25 95q0 62 -86 212q-44 76 -91 145zM238 325q-45 0 -82.5 21.5t-59 59t-21.5 81.5q0 51 67 173q41 74 96 155
q54 -81 95 -155q67 -122 67 -172q0 -45 -21.5 -82.5t-59 -59t-81.5 -21.5zM575 925h450v25h-450v-25zM575 575h450v25h-450v-25zM1038 1100h-475q-26 0 -44.5 -18.5t-18.5 -44.5v-899q0 -26 18.5 -44.5t43.5 -18.5h476q25 0 43.5 18.5t18.5 43.5v901q0 25 -18.5 43.5
t-44.5 18.5h1zM1075 138q0 -16 -11 -27t-26 -11h-475q-16 0 -27 11t-11 27v900q0 15 11 26t26 11h476q15 0 26 -11t11 -26v-900zM575 750h450v25h-450v-25z" />
    <glyph glyph-name="fuel-tank-level-full-small" unicode="&#xea94;" 
d="M650 300h400v50h-400v-50zM650 450h400v50h-400v-50zM250 945l-21 -31q-51 -78 -96 -162q-83 -155 -83 -227q0 -65 25.5 -116.5t71 -80t104 -28.5t106.5 32.5t71 87.5l1 2q10 32 14 49q7 28 7 54q0 72 -83 227q-45 84 -96 162zM382 439q-18 -42 -53 -65.5t-79 -23.5
q-49 0 -85 26q-32 23 -49 65q-16 38 -16 84q0 49 54 159q40 80 96 170q56 -90 96 -170q54 -110 54 -159q0 -20 -6 -44q-3 -14 -12 -42zM650 600h400v50h-400v-50zM1075 1100h-450q-33 0 -54 -21t-21 -54v-800q0 -33 21 -54t54 -21h450q33 0 54 21t21 54v800q0 33 -21 54
t-54 21zM1100 225q0 -12 -6.5 -18.5t-18.5 -6.5h-450q-12 0 -18.5 6.5t-6.5 18.5v800q0 12 6.5 18.5t18.5 6.5h450q12 0 18.5 -6.5t6.5 -18.5v-800zM650 750h400v50h-400v-50zM650 900h400v50h-400v-50z" />
    <glyph glyph-name="fuel-tank-level-half-large" unicode="&#xea95;" 
d="M575 225h450v25h-450v-25zM238 859l-11 -14q-47 -69 -91 -145q-86 -150 -86 -212q0 -52 25 -95t68 -68t94.5 -25t94.5 25t68 68t25 95q0 62 -86 212q-44 76 -91 145zM238 325q-45 0 -82.5 21.5t-59 59t-21.5 81.5q0 51 67 173q41 74 96 155q54 -81 95 -155
q67 -122 67 -172q0 -45 -21.5 -82.5t-59 -59t-81.5 -21.5zM575 575h450v25h-450v-25zM1038 1100h-475q-26 0 -44.5 -18.5t-18.5 -44.5v-899q0 -26 18.5 -44.5t43.5 -18.5h476q25 0 43.5 18.5t18.5 43.5v901q0 25 -18.5 43.5t-44.5 18.5h1zM1075 138q0 -16 -11 -27t-26 -11
h-475q-16 0 -27 11t-11 27v900q0 15 11 26t26 11h476q15 0 26 -11t11 -26v-900zM575 400h450v25h-450v-25z" />
    <glyph glyph-name="fuel-tank-level-half-small" unicode="&#xea96;" 
d="M650 300h400v50h-400v-50zM250 945l-21 -31q-51 -78 -96 -162q-83 -155 -83 -227q0 -65 25.5 -116.5t71 -80t104 -28.5t106.5 32.5t71 87.5l1 2q10 32 14 49q7 28 7 54q0 72 -83 227q-45 84 -96 162zM382 439q-18 -42 -53 -65.5t-79 -23.5q-49 0 -85 26q-32 23 -49 65
q-16 38 -16 84q0 49 54 159q40 80 96 170q56 -90 96 -170q54 -110 54 -159q0 -20 -6 -44q-3 -14 -12 -42zM650 450h400v50h-400v-50zM1075 1100h-450q-33 0 -54 -21t-21 -54v-800q0 -33 21 -54t54 -21h450q33 0 54 21t21 54v800q0 33 -21 54t-54 21zM1100 225
q0 -12 -6.5 -18.5t-18.5 -6.5h-450q-12 0 -18.5 6.5t-6.5 18.5v800q0 12 6.5 18.5t18.5 6.5h450q12 0 18.5 -6.5t6.5 -18.5v-800zM650 600h400v50h-400v-50z" />
    <glyph glyph-name="fuel-tank-level-onequarter-large" unicode="&#xea97;" 
d="M238 859l-11 -14q-47 -69 -91 -145q-86 -150 -86 -212q0 -52 25 -95t68 -68t94.5 -25t94.5 25t68 68t25 95q0 62 -86 212q-44 76 -91 145zM238 325q-45 0 -82.5 21.5t-59 59t-21.5 81.5q0 51 67 173q41 74 96 155q54 -81 95 -155q67 -122 67 -172q0 -45 -21.5 -82.5
t-59 -59t-81.5 -21.5zM575 225h450v25h-450v-25zM575 400h450v25h-450v-25zM1038 1100h-475q-26 0 -44.5 -18.5t-18.5 -44.5v-899q0 -26 18.5 -44.5t43.5 -18.5h476q25 0 43.5 18.5t18.5 43.5v901q0 25 -18.5 43.5t-44.5 18.5h1zM1075 138q0 -16 -11 -27t-26 -11h-475
q-16 0 -27 11t-11 27v900q0 15 11 26t26 11h476q15 0 26 -11t11 -26v-900z" />
    <glyph glyph-name="fuel-tank-level-onequarter-small" unicode="&#xea98;" 
d="M1075 1100h-450q-33 0 -54 -21t-21 -54v-800q0 -33 21 -54t54 -21h450q33 0 54 21t21 54v800q0 33 -21 54t-54 21zM1100 225q0 -12 -6.5 -18.5t-18.5 -6.5h-450q-12 0 -18.5 6.5t-6.5 18.5v800q0 12 6.5 18.5t18.5 6.5h450q12 0 18.5 -6.5t6.5 -18.5v-800zM250 945
l-21 -31q-51 -78 -96 -162q-83 -155 -83 -227q0 -65 25.5 -116.5t71 -80t104 -28.5t106.5 32.5t71 87.5l1 2q10 32 14 49q7 28 7 54q0 72 -83 227q-45 84 -96 162zM382 439q-18 -42 -53 -65.5t-79 -23.5q-49 0 -85 26q-32 23 -49 65q-16 38 -16 84q0 49 54 159q40 80 96 170
q56 -90 96 -170q54 -110 54 -159q0 -20 -6 -44q-3 -14 -12 -42zM650 450h400v50h-400v-50zM650 300h400v50h-400v-50z" />
    <glyph glyph-name="fuel-tank-level-threequarters-large" unicode="&#xea99;" 
d="M575 225h450v25h-450v-25zM238 859l-11 -14q-47 -69 -91 -145q-86 -150 -86 -212q0 -52 25 -95t68 -68t94.5 -25t94.5 25t68 68t25 95q0 62 -86 212q-44 76 -91 145zM238 325q-45 0 -82.5 21.5t-59 59t-21.5 81.5q0 51 67 173q41 74 96 155q54 -81 95 -155
q67 -122 67 -172q0 -45 -21.5 -82.5t-59 -59t-81.5 -21.5zM575 400h450v25h-450v-25zM1038 1100h-475q-26 0 -44.5 -18.5t-18.5 -44.5v-899q0 -26 18.5 -44.5t43.5 -18.5h476q25 0 43.5 18.5t18.5 43.5v901q0 25 -18.5 43.5t-44.5 18.5h1zM1075 138q0 -16 -11 -27t-26 -11
h-475q-16 0 -27 11t-11 27v900q0 15 11 26t26 11h476q15 0 26 -11t11 -26v-900zM575 750h450v25h-450v-25zM575 575h450v25h-450v-25z" />
    <glyph glyph-name="fuel-tank-level-threequarters-small" unicode="&#xea9a;" 
d="M250 945l-21 -31q-51 -78 -96 -162q-83 -155 -83 -227q0 -65 25.5 -116.5t71 -80t104 -28.5t106.5 32.5t71 87.5l1 2q10 32 14 49q7 28 7 54q0 72 -83 227q-45 84 -96 162zM382 439q-18 -42 -53 -65.5t-79 -23.5q-49 0 -85 26q-32 23 -49 65q-16 38 -16 84q0 49 54 159
q40 80 96 170q56 -90 96 -170q54 -110 54 -159q0 -20 -6 -44q-3 -14 -12 -42zM650 300h400v50h-400v-50zM650 750h400v50h-400v-50zM1075 1100h-450q-33 0 -54 -21t-21 -54v-800q0 -33 21 -54t54 -21h450q33 0 54 21t21 54v800q0 33 -21 54t-54 21zM1100 225
q0 -12 -6.5 -18.5t-18.5 -6.5h-450q-12 0 -18.5 6.5t-6.5 18.5v800q0 12 6.5 18.5t18.5 6.5h450q12 0 18.5 -6.5t6.5 -18.5v-800zM650 600h400v50h-400v-50zM650 450h400v50h-400v-50z" />
    <glyph glyph-name="gas-range-large" unicode="&#xea9b;" 
d="M150 1050q0 19 11 34.5t26 15.5h476q15 0 26 -15.5t11 -34.5v-800h25v800q0 29 -18 52t-44 23h-475q-27 0 -45 -23t-18 -52v-950h-75v-25h350v25h-250v950zM1125 125h-650v100h-25v-225h25v100h650v-100h25v225h-25v-100zM1055 988l66 66l-17 17l-66 -66l-117 116
l-17 -17l221 -222v-519q0 -18 -10 -28t-27 -10h-100q-16 0 -27 11t-11 26v276q0 25 -18.5 43.5t-44.5 18.5h-112v-25h113q15 0 26 -11t11 -27v-274q0 -26 18.5 -44.5t44.5 -18.5h100q27 0 44.5 17.5t17.5 44.5v531zM525 310l3 -16l15 7q15 8 29 32q28 47 28 129
q0 80 -86 271q-44 100 -91 185l-10 21l-11 -21q-47 -85 -91 -185q-86 -191 -86 -270q0 -83 28 -130q14 -24 29 -32l15 -7l3 16q2 15 10 37q14 41 35 67q29 36 67.5 36t67.5 -36q21 -26 35 -67q8 -22 10 -37zM280 336q-30 40 -30 127q0 65 67 222q41 95 96 201
q54 -106 95 -201q67 -156 67 -222q0 -87 -30 -127q-15 51 -40 86q-38 53 -92.5 53t-92.5 -53q-25 -35 -40 -86z" />
    <glyph glyph-name="gas-range-small" unicode="&#xea9c;" 
d="M850 625v-250q0 -29 23 -52t52 -23h100q29 0 52 23t23 52v510l-90 90l33 32l-36 36l-32 -33l-82 83l-36 -36l193 -192v-490q0 -8 -8.5 -16.5t-16.5 -8.5h-100q-8 0 -16.5 8.5t-8.5 16.5v250q0 29 -23 52t-52 23h-75v-50h75q8 0 16.5 -8.5t8.5 -16.5zM150 1025
q0 12 6.5 18.5t18.5 6.5h450q12 0 18.5 -6.5t6.5 -18.5v-775h50v775q0 33 -21 54t-54 21h-450q-33 0 -54 -21t-21 -54v-875h-50v-50h300v50h-200v875zM506 288l30 15q19 9 35 36q29 50 29 136q0 81 -86 275q-44 98 -92 187l-22 41l-22 -41q-48 -89 -92 -187
q-86 -194 -86 -275q0 -86 29 -136q16 -27 35 -36l30 -15l6 33q7 36 22 67q31 62 78.5 62t78.5 -63q15 -32 21 -66zM400 500q-52 0 -90 -41q-28 -30 -45 -78q-15 37 -15 93.5t54 189.5q40 97 96 207q56 -110 96 -207q54 -133 54 -190t-15 -93q-17 48 -45 78q-38 41 -90 41z
M1150 250v-100h-650v100h-50v-250h50v100h650v-100h50v250h-50z" />
    <glyph glyph-name="gas-tank-level-empty-large" unicode="&#xea9d;" 
d="M1038 1100h-475q-26 0 -44.5 -18.5t-18.5 -44.5v-899q0 -26 18.5 -44.5t43.5 -18.5h476q25 0 43.5 18.5t18.5 43.5v901q0 25 -18.5 43.5t-44.5 18.5h1zM1075 138q0 -16 -11 -27t-26 -11h-475q-16 0 -27 11t-11 27v900q0 15 11 26t26 11h476q15 0 26 -11t11 -26v-900z
M238 939l-11 -21q-47 -85 -91 -185q-86 -191 -86 -270q0 -83 28 -130q14 -24 29 -32l15 -7l3 16q2 15 10 37q14 41 35 67q29 36 67.5 36t67.5 -36q21 -26 35 -67q8 -22 10 -37l3 -16l15 7q15 8 29 32q28 47 28 129q0 80 -86 271q-44 100 -90 185zM370 336q-15 51 -40 86
q-38 53 -92.5 53t-92.5 -53q-25 -35 -40 -86q-30 40 -30 127q0 65 67 222q41 95 95 201q55 -106 96 -201q67 -156 67 -222q0 -87 -30 -127zM575 225h450v25h-450v-25z" />
    <glyph glyph-name="gas-tank-level-empty-small" unicode="&#xea9e;" 
d="M250 978l-22 -41q-48 -89 -92 -187q-86 -194 -86 -275q0 -86 29 -136q16 -27 35 -36l30 -15l6 33q7 36 22 67q31 62 78.5 62t78.5 -63q15 -32 21 -66l6 -33l30 15q19 9 35 36q29 50 29 136q0 81 -86 275q-44 98 -92 187zM385 381q-17 48 -45 78q-38 41 -90 41t-90 -41
q-28 -30 -45 -78q-15 37 -15 93.5t54 189.5q40 97 96 207q56 -110 96 -207q54 -133 54 -190t-15 -93zM1075 1100h-450q-33 0 -54 -21t-21 -54v-800q0 -33 21 -54t54 -21h450q33 0 54 21t21 54v800q0 33 -21 54t-54 21zM1100 225q0 -12 -6.5 -18.5t-18.5 -6.5h-450
q-12 0 -18.5 6.5t-6.5 18.5v800q0 12 6.5 18.5t18.5 6.5h450q12 0 18.5 -6.5t6.5 -18.5v-800zM650 300h400v50h-400v-50z" />
    <glyph glyph-name="gas-tank-level-full-large" unicode="&#xea9f;" 
d="M575 225h450v25h-450v-25zM575 400h450v25h-450v-25zM238 939l-11 -21q-47 -85 -91 -185q-86 -191 -86 -270q0 -83 28 -130q14 -24 29 -32l15 -7l3 16q2 15 10 37q14 41 35 67q29 36 67.5 36t67.5 -36q21 -26 35 -67q8 -22 10 -37l3 -16l15 7q15 8 29 32q28 47 28 129
q0 80 -86 271q-44 100 -90 185zM370 336q-15 51 -40 86q-38 53 -92.5 53t-92.5 -53q-25 -35 -40 -86q-30 40 -30 127q0 65 67 222q41 95 95 201q55 -106 96 -201q67 -156 67 -222q0 -87 -30 -127zM1038 1100h-475q-26 0 -44.5 -18.5t-18.5 -44.5v-899q0 -26 18.5 -44.5
t43.5 -18.5h476q25 0 43.5 18.5t18.5 43.5v901q0 25 -18.5 43.5t-44.5 18.5h1zM1075 138q0 -16 -11 -27t-26 -11h-475q-16 0 -27 11t-11 27v900q0 15 11 26t26 11h476q15 0 26 -11t11 -26v-900zM575 925h450v25h-450v-25zM575 750h450v25h-450v-25zM575 575h450v25h-450v-25
z" />
    <glyph glyph-name="gas-tank-level-full-small" unicode="&#xeaa0;" 
d="M650 450h400v50h-400v-50zM650 300h400v50h-400v-50zM250 978l-22 -41q-48 -89 -92 -187q-86 -194 -86 -275q0 -86 29 -136q16 -27 35 -36l30 -15l6 33q7 36 22 67q31 62 78.5 62t78.5 -63q15 -32 21 -66l6 -33l30 15q19 9 35 36q29 50 29 136q0 81 -86 275
q-44 98 -92 187zM385 381q-17 48 -45 78q-38 41 -90 41t-90 -41q-28 -30 -45 -78q-15 37 -15 93.5t54 189.5q40 97 96 207q56 -110 96 -207q54 -133 54 -190t-15 -93zM650 600h400v50h-400v-50zM650 900h400v50h-400v-50zM1075 1100h-450q-33 0 -54 -21t-21 -54v-800
q0 -33 21 -54t54 -21h450q33 0 54 21t21 54v800q0 33 -21 54t-54 21zM1100 225q0 -12 -6.5 -18.5t-18.5 -6.5h-450q-12 0 -18.5 6.5t-6.5 18.5v800q0 12 6.5 18.5t18.5 6.5h450q12 0 18.5 -6.5t6.5 -18.5v-800zM650 750h400v50h-400v-50z" />
    <glyph glyph-name="gas-tank-level-half-large" unicode="&#xeaa1;" 
d="M575 225h450v25h-450v-25zM238 939l-11 -21q-47 -85 -91 -185q-86 -191 -86 -270q0 -83 28 -130q14 -24 29 -32l15 -7l3 16q2 15 10 37q14 41 35 67q29 36 67.5 36t67.5 -36q21 -26 35 -67q8 -22 10 -37l3 -16l15 7q15 8 29 32q28 47 28 129q0 80 -86 271
q-44 100 -90 185zM370 336q-15 51 -40 86q-38 53 -92.5 53t-92.5 -53q-25 -35 -40 -86q-30 40 -30 127q0 65 67 222q41 95 95 201q55 -106 96 -201q67 -156 67 -222q0 -87 -30 -127zM1038 1100h-475q-26 0 -44.5 -18.5t-18.5 -44.5v-899q0 -26 18.5 -44.5t43.5 -18.5h476
q25 0 43.5 18.5t18.5 43.5v901q0 25 -18.5 43.5t-44.5 18.5h1zM1075 138q0 -16 -11 -27t-26 -11h-475q-16 0 -27 11t-11 27v900q0 15 11 26t26 11h476q15 0 26 -11t11 -26v-900zM575 575h450v25h-450v-25zM575 400h450v25h-450v-25z" />
    <glyph glyph-name="gas-tank-level-half-small" unicode="&#xeaa2;" 
d="M650 300h400v50h-400v-50zM250 978l-22 -41q-48 -89 -92 -187q-86 -194 -86 -275q0 -86 29 -136q16 -27 35 -36l30 -15l6 33q7 36 22 67q31 62 78.5 62t78.5 -63q15 -32 21 -66l6 -33l30 15q19 9 35 36q29 50 29 136q0 81 -86 275q-44 98 -92 187zM385 381q-17 48 -45 78
q-38 41 -90 41t-90 -41q-28 -30 -45 -78q-15 37 -15 93.5t54 189.5q40 97 96 207q56 -110 96 -207q54 -133 54 -190t-15 -93zM1075 1100h-450q-33 0 -54 -21t-21 -54v-800q0 -33 21 -54t54 -21h450q33 0 54 21t21 54v800q0 33 -21 54t-54 21zM1100 225q0 -12 -6.5 -18.5
t-18.5 -6.5h-450q-12 0 -18.5 6.5t-6.5 18.5v800q0 12 6.5 18.5t18.5 6.5h450q12 0 18.5 -6.5t6.5 -18.5v-800zM650 450h400v50h-400v-50zM650 600h400v50h-400v-50z" />
    <glyph glyph-name="gas-tank-level-onequarter-large" unicode="&#xeaa3;" 
d="M238 939l-11 -21q-47 -85 -91 -185q-86 -191 -86 -270q0 -83 28 -130q14 -24 29 -32l15 -7l3 16q2 15 10 37q14 41 35 67q29 36 67.5 36t67.5 -36q21 -26 35 -67q8 -22 10 -37l3 -16l15 7q15 8 29 32q28 47 28 129q0 80 -86 271q-44 100 -90 185zM370 336q-15 51 -40 86
q-38 53 -92.5 53t-92.5 -53q-25 -35 -40 -86q-30 40 -30 127q0 65 67 222q41 95 95 201q55 -106 96 -201q67 -156 67 -222q0 -87 -30 -127zM575 225h450v25h-450v-25zM575 400h450v25h-450v-25zM1038 1100h-475q-26 0 -44.5 -18.5t-18.5 -44.5v-899q0 -26 18.5 -44.5
t43.5 -18.5h476q25 0 43.5 18.5t18.5 43.5v901q0 25 -18.5 43.5t-44.5 18.5h1zM1075 138q0 -16 -11 -27t-26 -11h-475q-16 0 -27 11t-11 27v900q0 15 11 26t26 11h476q15 0 26 -11t11 -26v-900z" />
    <glyph glyph-name="gas-tank-level-onequarter-small" unicode="&#xeaa4;" 
d="M250 978l-22 -41q-48 -89 -92 -187q-86 -194 -86 -275q0 -86 29 -136q16 -27 35 -36l30 -15l6 33q7 36 22 67q31 62 78.5 62t78.5 -63q15 -32 21 -66l6 -33l30 15q19 9 35 36q29 50 29 136q0 81 -86 275q-44 98 -92 187zM385 381q-17 48 -45 78q-38 41 -90 41t-90 -41
q-28 -30 -45 -78q-15 37 -15 93.5t54 189.5q40 97 96 207q56 -110 96 -207q54 -133 54 -190t-15 -93zM1075 1100h-450q-33 0 -54 -21t-21 -54v-800q0 -33 21 -54t54 -21h450q33 0 54 21t21 54v800q0 33 -21 54t-54 21zM1100 225q0 -12 -6.5 -18.5t-18.5 -6.5h-450
q-12 0 -18.5 6.5t-6.5 18.5v800q0 12 6.5 18.5t18.5 6.5h450q12 0 18.5 -6.5t6.5 -18.5v-800zM650 300h400v50h-400v-50zM650 450h400v50h-400v-50z" />
    <glyph glyph-name="gas-tank-level-threequarters-large" unicode="&#xeaa5;" 
d="M238 939l-11 -21q-47 -85 -91 -185q-86 -191 -86 -270q0 -83 28 -130q14 -24 29 -32l15 -7l3 16q2 15 10 37q14 41 35 67q29 36 67.5 36t67.5 -36q21 -26 35 -67q8 -22 10 -37l3 -16l15 7q15 8 29 32q28 47 28 129q0 80 -86 271q-44 100 -90 185zM370 336q-15 51 -40 86
q-38 53 -92.5 53t-92.5 -53q-25 -35 -40 -86q-30 40 -30 127q0 65 67 222q41 95 95 201q55 -106 96 -201q67 -156 67 -222q0 -87 -30 -127zM575 225h450v25h-450v-25zM575 575h450v25h-450v-25zM575 400h450v25h-450v-25zM1038 1100h-475q-26 0 -44.5 -18.5t-18.5 -44.5
v-899q0 -26 18.5 -44.5t43.5 -18.5h476q25 0 43.5 18.5t18.5 43.5v901q0 25 -18.5 43.5t-44.5 18.5h1zM1075 138q0 -16 -11 -27t-26 -11h-475q-16 0 -27 11t-11 27v900q0 15 11 26t26 11h476q15 0 26 -11t11 -26v-900zM575 750h450v25h-450v-25z" />
    <glyph glyph-name="gas-tank-level-threequarters-small" unicode="&#xeaa6;" 
d="M650 300h400v50h-400v-50zM250 978l-22 -41q-48 -89 -92 -187q-86 -194 -86 -275q0 -86 29 -136q16 -27 35 -36l30 -15l6 33q7 36 22 67q31 62 78.5 62t78.5 -63q15 -32 21 -66l6 -33l30 15q19 9 35 36q29 50 29 136q0 81 -86 275q-44 98 -92 187zM385 381q-17 48 -45 78
q-38 41 -90 41t-90 -41q-28 -30 -45 -78q-15 37 -15 93.5t54 189.5q40 97 96 207q56 -110 96 -207q54 -133 54 -190t-15 -93zM650 450h400v50h-400v-50zM1075 1100h-450q-33 0 -54 -21t-21 -54v-800q0 -33 21 -54t54 -21h450q33 0 54 21t21 54v800q0 33 -21 54t-54 21z
M1100 225q0 -12 -6.5 -18.5t-18.5 -6.5h-450q-12 0 -18.5 6.5t-6.5 18.5v800q0 12 6.5 18.5t18.5 6.5h450q12 0 18.5 -6.5t6.5 -18.5v-800zM650 600h400v50h-400v-50zM650 750h400v50h-400v-50z" />
    <glyph glyph-name="geofence-alert-large" unicode="&#xeaa7;" 
d="M900 1000h-25v-150h25v150zM1159 675l-271 488l-272 -488h543zM1116 700h-457l229 412zM900 750v50h-25v-50h25zM535 159l10 14v0q46 63 97 143q102 159 147 267l-23 9q-39 -94 -124 -230q-52 -83 -107 -160q-84 119 -150 232q-113 195 -113 278q1 66 29 120
q33 63 92 101t128.5 42.5t132.5 -26.5l12 22q-69 35 -147 29q-75 -5 -139 -45q-65 -42 -101 -112q-32 -59 -31 -131q0 -97 134 -322q69 -116 143 -217zM689 300l-2 -25q93 -7 167 -24q67 -16 105.5 -35.5t38.5 -38.5q-1 -22 -56 -45q-60 -25 -159 -40q-111 -17 -245 -17
q-130 0 -240 16q-101 14 -160.5 38t-59.5 49q0 18 38 37.5t105 35.5q74 17 168 24l-2 25q-134 -11 -225 -39q-109 -35 -109 -83q0 -41 72 -71q65 -27 180 -43q108 -14 233 -14q121 0 230 15q114 15 181 43q74 30 74 70q0 48 -110 83q-91 28 -224 39zM585 829l10 23
q-37 15 -76.5 10t-71.5 -28.5t-48 -61t-11 -77t28.5 -71.5t61.5 -48q27 -12 58 -12q40 0 77 20l-11 22q-28 -14 -58.5 -16t-56.5 9q-31 13 -50.5 40t-24 60t9 64t40 50.5t59.5 24t64 -8.5z" />
    <glyph glyph-name="geofence-alert-small" unicode="&#xeaa8;" 
d="M900 950h-50v-150h50v150zM900 650v100h-50v-100h50zM575 146l21 30q25 36 61 94q72 111 125 208l-44 24q-69 -126 -163 -267q-97 143 -169 278q-101 188 -101 267q0 5 2 16v2q3 17 3 23q8 53 35.5 98.5t71 77.5t95 44.5t104.5 3.5l8 50q-63 10 -124 -5t-113 -53
t-84.5 -92t-42.5 -120q0 -5 -2 -16v-2q-3 -17 -3 -27q0 -107 145 -360q75 -129 154 -244zM778 300l-6 -50q85 -10 153 -30q58 -17 94 -38q31 -19 31 -32t-31 -30q-34 -18 -93 -33q-66 -17 -150 -26q-96 -11 -205.5 -11t-204.5 11q-83 9 -149 26q-58 15 -91 33
q-31 17 -31 29.5t29 30.5q35 22 93 39q72 21 166 31l-6 50q-133 -15 -223 -50q-109 -42 -109 -100q0 -49 80 -85q71 -32 197 -49q115 -16 248 -16q110 0 219 13q135 15 214 45q97 37 97 92q0 37 -48 69q-43 30 -119 51q-71 20 -155 30zM1200 550l-325 651l-325 -651h650z
M1120 600h-490l245 489zM527 925q-30 -9 -53 -28.5t-36 -45.5q-22 -43 -15.5 -92t38.5 -85l38 32q-22 26 -26.5 59.5t9.5 63.5q9 17 24.5 29.5t35 18.5t39.5 3.5t36 -12.5l26 44q-26 15 -56.5 18t-59.5 -5z" />
    <glyph glyph-name="geofence-large" unicode="&#xeaa9;" 
d="M688 738q0 40 -20.5 74.5t-55 55t-75 20.5t-75 -20.5t-54.5 -55t-20 -75t20 -75t54.5 -54.5t75 -20t75 20t55 54.5t19.5 75.5h1zM413 738q0 33 16.5 62t45.5 46t62.5 17t62.5 -17t45.5 -46t17 -62.5t-16.5 -62.5t-46 -46t-62.5 -16.5t-62.5 17t-46 45.5t-16 62v1z
M689 300l-2 -25q93 -7 167 -24q67 -16 105.5 -35.5t38.5 -38.5q-1 -22 -56 -45q-60 -25 -159 -40q-111 -17 -245 -17q-130 0 -240 16q-101 14 -160.5 38t-59.5 49q0 18 38 37.5t105 35.5q74 17 168 24l-2 25q-134 -11 -225 -39q-109 -35 -109 -83q0 -41 72 -71
q65 -27 180 -43q108 -14 233 -14q121 0 230 15q114 15 181 43q74 30 74 70q0 48 -110 83q-91 28 -224 39zM538 184l10 14l77 112q80 124 131 222q69 137 69 206q0 77 -39 144q-38 66 -104 104q-67 39 -144.5 39t-144.5 -39q-66 -38 -104 -104q-39 -67 -39 -144
q0 -98 134 -323q70 -116 143 -217zM538 1000q71 0 131 -35.5t95.5 -95.5t35.5 -131q0 -84 -113 -279q-65 -113 -150 -232q-84 119 -149 232q-113 195 -113 279q0 71 35.5 131t95.5 95.5t132 35.5z" />
    <glyph glyph-name="geofence-small" unicode="&#xeaaa;" 
d="M575 156l21 30l81 123q86 136 139 243q74 148 74 221q4 62 -18 121.5t-65 107.5q-45 50 -106 78t-127 30q-86 -3 -160 -50q-73 -46 -114 -121q-43 -78 -40 -164q0 -74 74 -223q53 -107 139 -243q46 -72 82 -123zM574 1060q55 -2 106.5 -26t89.5 -66q37 -40 55 -90.5
t15 -102.5q0 -76 -99 -259q-71 -132 -166 -272q-95 141 -166 272q-99 183 -99 260q-2 73 34 139q35 63 95 102q63 41 135 43zM773 300l-6 -50q85 -10 153 -30q58 -17 94 -38q31 -19 31 -32t-31 -30q-34 -18 -93 -33q-66 -17 -150 -26q-96 -11 -205.5 -11t-204.5 11
q-83 9 -149 26q-58 15 -91 33q-31 17 -31 29.5t29 30.5q35 22 93 39q72 21 166 31l-6 50q-133 -15 -223 -50q-109 -42 -109 -100q0 -49 80 -85q71 -32 197 -49q115 -16 248 -16q110 0 219 13q135 15 214 45q97 37 97 92q0 37 -48 69q-43 30 -119 51q-71 20 -155 30zM725 775
q0 41 -20 75.5t-54.5 54.5t-75.5 20t-75.5 -20t-54.5 -54.5t-20 -75.5t20 -75.5t54.5 -54.5t75.5 -20t75.5 20t54.5 54.5t20 75.5zM475 775q0 42 29 71t71 29t71 -29t29 -71t-29 -71t-71 -29t-71 29t-29 71z" />
    <glyph glyph-name="google-plus-large" unicode="&#xeaab;" 
d="M463 648v-80q45 -3 135 -3q-10 -48 -52 -76q-40 -27 -90.5 -25t-85.5 34q-35 28 -47 74t2 91q15 46 53 72q39 31 92 28q49 -3 93 -33q40 40 60 63q-37 28 -75 42q-42 17 -83 15q-60 2 -115 -29q-54 -30 -87.5 -83t-34.5 -113q-4 -49 14.5 -96t54 -83t81.5 -53.5t97.5 -15
t95.5 24.5q47 23 77 63q26 37 37 88q9 44 5 95h-227zM907 648v67h-67v-67h-68v-68h68v-67h67v67h68v68h-68z" />
    <glyph glyph-name="google-plus-small" unicode="&#xeaac;" 
d="M445 635v-90h155q-9 -42 -40 -71q-29 -27 -69 -37.5t-81 -2t-70 35.5q-42 32 -56.5 84.5t1.5 103.5q16 53 60 82q43 35 105 31q56 -3 105 -36q39 31 70 70q-40 32 -84 49q-50 20 -96 16q-69 2 -131.5 -32.5t-99.5 -93.5q-39 -61 -39 -129q-5 -56 16 -110t62.5 -96
t96.5 -64q53 -20 111.5 -18t108.5 26q54 26 85 72q31 42 44 101q10 51 6 109h-260zM945 640v75h-75v-75h-75v-75h75v-75h75v75h75v75h-75z" />
    <glyph glyph-name="gps-large" unicode="&#xeaad;" 
d="M1024 625q-3 114 -61 211q-57 95 -152 152q-97 58 -211 61v101h-25v-101q-114 -3 -211 -61q-95 -57 -152 -152q-58 -97 -61 -211h-101v-25h101q3 -114 61 -211q57 -95 152 -152q97 -58 211 -61v-101h25v101q114 3 211 61q95 57 152 152q58 97 61 211h101v25h-101z
M999 600q-3 -107 -58 -199q-53 -89 -142 -142q-92 -55 -199 -58v124h-25v-124q-107 3 -199 58q-89 53 -142 142q-55 92 -58 199h124v25h-124q3 107 58 199q53 89 142 142q92 55 199 58v-124h25v124q107 -3 199 -58q89 -53 142 -142q55 -92 58 -199h-124v-25h124z" />
    <glyph glyph-name="gps-small" unicode="&#xeaae;" 
d="M1049 650q-6 119 -68 221q-60 100 -160 160q-102 62 -221 68v101h-50v-101q-119 -6 -221 -68q-100 -60 -160 -160q-62 -102 -68 -221h-101v-50h101q6 -119 68 -221q60 -100 160 -160q102 -62 221 -68v-101h50v101q119 6 221 68q100 60 160 160q62 102 68 221h101v50h-101
zM999 600q-6 -106 -61 -196q-54 -88 -142 -142q-90 -55 -196 -61v149h-50v-149q-106 6 -196 61q-88 54 -142 142q-55 90 -61 196h149v50h-149q6 106 61 196q54 88 142 142q90 55 196 61v-149h50v149q106 -6 196 -61q88 -54 142 -142q55 -90 61 -196h-149v-50h149z" />
    <glyph glyph-name="grab-large" unicode="&#xeaaf;" 
d="M325 525h550v25h-550v-25zM325 700v-25h550v25h-550z" />
    <glyph glyph-name="grab-small" unicode="&#xeab0;" 
d="M150 500h900v50h-900v-50zM150 750v-50h900v50h-900z" />
    <glyph glyph-name="group-discussion-large" unicode="&#xeab1;" 
d="M625 900v200h-625v-593l168 168h132v-629l242 229h548q30 0 55.5 15t40 40.5t14.5 56.5v513h-575zM300 700h-143l-132 -132v507h575v-175h-300v-200zM1175 388q0 -37 -24.5 -62.5t-60.5 -25.5h-557l-208 -196v771h850v-487z" />
    <glyph glyph-name="group-discussion-small" unicode="&#xeab2;" 
d="M650 900v200h-650v-635l185 185h115v-635l235 235h540q34 0 62.5 17t45.5 45.5t17 62.5v525h-550zM300 700h-135l-115 -115v465h550v-150h-300v-200zM1150 375q0 -31 -22 -53t-53 -22h-560l-165 -165v715h800v-475z" />
    <glyph glyph-name="groups-large" unicode="&#xeab3;" 
d="M713 725h150q36 0 61.5 25.5t25.5 62.5v150q0 36 -25.5 61.5t-61.5 25.5h-150q-37 0 -62.5 -25.5t-25.5 -61.5v-150q0 -37 25.5 -62.5t61.5 -25.5h1zM650 963q0 26 18 44t45 18h150q26 0 44 -18t18 -44v-150q0 -27 -18 -45t-44 -18h-150q-27 0 -45 18t-18 45v150z
M613 575h-450q-37 0 -62.5 -25.5t-25.5 -61.5v-313h625v313q0 36 -25.5 61.5t-61.5 25.5zM675 200h-575v288q0 26 18 44t45 18h450q26 0 44 -18t18 -44v-288zM1013 650h-413v-25h413q26 0 44 -18t18 -44v-288h-322v-25h347v313q0 36 -25.5 61.5t-62.5 25.5h1zM313 650h150
q36 0 61.5 25.5t25.5 62.5v150q0 36 -25.5 61.5t-62.5 25.5h-149q-37 0 -62.5 -25.5t-25.5 -62.5v-149q0 -37 25.5 -62.5t61.5 -25.5h1zM250 888q0 26 18 44t45 18h150q26 0 44 -18t18 -44v-150q0 -27 -18 -45t-44 -18h-150q-27 0 -45 18t-18 45v150z" />
    </font>
</defs>
</svg>
